<svg xmlns="http://www.w3.org/2000/svg" viewBox="0 0 750 500"><g id="freepik--background-simple--inject-17"><path d="M630.56,54.23a273.64,273.64,0,0,1-34,7.45c-52.17,7.8-172.42,24.53-230.7,22.13C290.2,80.69,50.43-2.5,32.32,45.33S19.53,443.6,54.7,450.88s159.84-49.91,233.37-52S537.43,453,609.89,456.08s78.86-8.32,95.91-69.67,35.16-263.09,32-309.88C735.05,36.75,657.65,46.56,630.56,54.23Z" style="fill:#15566C"></path><path d="M630.56,54.23a273.64,273.64,0,0,1-34,7.45c-52.17,7.8-172.42,24.53-230.7,22.13C290.2,80.69,50.43-2.5,32.32,45.33S19.53,443.6,54.7,450.88s159.84-49.91,233.37-52S537.43,453,609.89,456.08s78.86-8.32,95.91-69.67,35.16-263.09,32-309.88C735.05,36.75,657.65,46.56,630.56,54.23Z" style="fill:#fff;opacity:0.7000000000000001"></path></g><g id="freepik--Arrows--inject-17"><g style="opacity:0.30000000000000004"><polygon points="363.24 41.96 473.25 41.96 473.25 20.82 525.25 60.13 473.25 99.44 473.25 78.3 363.24 78.3 363.24 41.96" style="fill:none;stroke:#000;stroke-linecap:round;stroke-linejoin:round"></polygon><polygon points="371.8 207.24 656.52 207.24 656.52 186.1 708.52 225.41 656.52 264.72 656.52 243.58 371.8 243.58 371.8 207.24" style="fill:none;stroke:#000;stroke-linecap:round;stroke-linejoin:round"></polygon><polygon points="33.53 363.96 318.25 363.96 318.25 342.82 370.25 382.13 318.25 421.43 318.25 400.29 33.53 400.29 33.53 363.96" style="fill:none;stroke:#000;stroke-linecap:round;stroke-linejoin:round"></polygon><polygon points="38.81 180.25 181.48 180.25 181.48 169.66 207.54 189.35 181.48 209.05 181.48 198.46 38.81 198.46 38.81 180.25" style="fill:none;stroke:#000;stroke-linecap:round;stroke-linejoin:round"></polygon><polygon points="469.3 392.95 611.97 392.95 611.97 382.36 638.03 402.05 611.97 421.75 611.97 411.16 469.3 411.16 469.3 392.95" style="fill:none;stroke:#000;stroke-linecap:round;stroke-linejoin:round"></polygon></g></g><g id="freepik--Clouds--inject-17"><path d="M689.43,57.64s-10.19-27.16-29.71-32.25-24.61,21.22-28,25.46-13.58-6.79-22.07-.85-11,15.28-13.58,15.28-7.64-7.64-11.88-3.4-13.58,11.88-13.58,11.88-8.49-5.09-11-2.54l-7.64,7.64H728.47s-3.4-25.46-12.73-28S689.43,67,689.43,57.64Z" style="fill:none;stroke:#000;stroke-linecap:round;stroke-linejoin:round;opacity:0.30000000000000004"></path><path d="M160.27,38.56s-5.75-15.33-16.77-18.21-13.9,12-15.81,14.37-7.67-3.83-12.46-.47-6.23,8.62-7.67,8.62-4.31-4.31-6.7-1.92-7.67,6.71-7.67,6.71S88.4,44.79,87,46.22l-4.31,4.32h99.66s-1.92-14.38-7.19-15.82S160.27,43.83,160.27,38.56Z" style="fill:none;stroke:#000;stroke-linecap:round;stroke-linejoin:round;opacity:0.30000000000000004"></path><path d="M549.78,144.11S544,128.78,533,125.9s-13.89,12-15.81,14.38-7.67-3.84-12.46-.48-6.23,8.62-7.66,8.62-4.31-4.31-6.71-1.92-7.67,6.71-7.67,6.71-4.79-2.87-6.23-1.43l-4.31,4.31h99.66s-1.92-14.38-7.19-15.81S549.78,149.38,549.78,144.11Z" style="fill:none;stroke:#000;stroke-linecap:round;stroke-linejoin:round;opacity:0.30000000000000004"></path></g><g id="freepik--Water--inject-17"><rect x="0.7" y="440.3" width="748.47" height="59.7" style="fill:#15566C"></rect><line x1="14.62" y1="440.19" x2="740.61" y2="440.19" style="fill:none;stroke:#263238;stroke-linecap:round;stroke-linejoin:round"></line><line x1="145.66" y1="452.57" x2="290.48" y2="452.57" style="fill:none;stroke:#263238;stroke-linecap:round;stroke-linejoin:round"></line><line x1="287.74" y1="465.75" x2="343.3" y2="465.75" style="fill:none;stroke:#263238;stroke-linecap:round;stroke-linejoin:round"></line><line x1="12.69" y1="468.38" x2="68.25" y2="468.38" style="fill:none;stroke:#263238;stroke-linecap:round;stroke-linejoin:round"></line><line x1="409.79" y1="459.6" x2="383.38" y2="459.6" style="fill:none;stroke:#263238;stroke-linecap:round;stroke-linejoin:round"></line><line x1="160.23" y1="469.26" x2="227.63" y2="469.26" style="fill:none;stroke:#263238;stroke-linecap:round;stroke-linejoin:round"></line><line x1="77.35" y1="450.82" x2="118.34" y2="450.82" style="fill:none;stroke:#263238;stroke-linecap:round;stroke-linejoin:round"></line><line x1="109.23" y1="471.02" x2="150.22" y2="471.02" style="fill:none;stroke:#263238;stroke-linecap:round;stroke-linejoin:round"></line><line x1="579.19" y1="462.23" x2="471.72" y2="462.23" style="fill:none;stroke:#263238;stroke-linecap:round;stroke-linejoin:round"></line><line x1="554.6" y1="453.45" x2="586.48" y2="453.45" style="fill:none;stroke:#263238;stroke-linecap:round;stroke-linejoin:round"></line><line x1="717.63" y1="457.84" x2="647.5" y2="457.84" style="fill:none;stroke:#263238;stroke-linecap:round;stroke-linejoin:round"></line><line x1="648.41" y1="471.02" x2="522.72" y2="471.02" style="fill:none;stroke:#263238;stroke-linecap:round;stroke-linejoin:round"></line><line x1="328.73" y1="450.82" x2="363.34" y2="450.82" style="fill:none;stroke:#263238;stroke-linecap:round;stroke-linejoin:round"></line><line x1="458.97" y1="480.68" x2="349.68" y2="480.68" style="fill:none;stroke:#263238;stroke-linecap:round;stroke-linejoin:round"></line><line x1="734.94" y1="476.29" x2="697.59" y2="476.29" style="fill:none;stroke:#263238;stroke-linecap:round;stroke-linejoin:round"></line></g><g id="freepik--Characters--inject-17"><path d="M350.85,62.7s-50.31-3.41-53.3-1.7S290.3,72.93,289,73.79s-29.42,3-29.42,3-4.27,9.81-5.55,11.51-16.2.86-20.89-3a73.57,73.57,0,0,0,10.24,9c6.39,4.69,10.23,7.68,11.93,9s6.4-3.84,9.38-4.27,22.17,5.12,26,5.54,6.4-14.49,10.66-13.64,50.31,3.41,50.31,3.41Z" style="fill:#15566C;stroke:#263238;stroke-linecap:round;stroke-linejoin:round"></path><line x1="351.78" y1="106.3" x2="351.78" y2="59.4" style="fill:#fff;stroke:#263238;stroke-linecap:round;stroke-linejoin:round;stroke-width:4px"></line><polygon points="508.72 316.92 351.58 99.71 179.63 344.89 414.93 379.44 508.72 316.92" style="fill:#fff;stroke:#263238;stroke-linecap:round;stroke-linejoin:round"></polygon><line x1="351.58" y1="135.52" x2="351.58" y2="347.34" style="fill:none;stroke:#263238;stroke-linecap:round;stroke-linejoin:round"></line><line x1="351.58" y1="106.3" x2="351.58" y2="127.74" style="fill:none;stroke:#263238;stroke-linecap:round;stroke-linejoin:round"></line><path d="M553.52,92.74s.24,4-.83,5.82-4.63,9.74-4.63,9.74l-8.55-1-.36-6.77S536.42,96.42,536,96s-3.8-.59-3.8-1.43,1.07-.71,1.07-.71Z" style="fill:#fff;stroke:#263238;stroke-linecap:round;stroke-linejoin:round"></path><path d="M539.27,92.86s2,1.66,2,2.26v.59S545.68,97,546,98.92s.12,3.09-.47,3.44" style="fill:none;stroke:#263238;stroke-linecap:round;stroke-linejoin:round"></path><polygon points="538.56 105.21 550.08 108.06 548.89 112.45 537.02 109.96 538.56 105.21" style="fill:#fff;stroke:#263238;stroke-linecap:round;stroke-linejoin:round"></polygon><path d="M537,109l13.91,4.13s-11.74,46.94-13.26,48.68-24.56.65-24.56.65l1.3-33.69,12.17,13Z" style="fill:#15566C;stroke:#263238;stroke-linecap:round;stroke-linejoin:round"></path><polygon points="560.21 82.56 528.07 85.58 528.24 94.11 560.88 93.78 560.21 82.56" style="fill:#9e9e9e;stroke:#263238;stroke-linecap:round;stroke-linejoin:round"></polygon><polygon points="590.01 78.88 589.68 96.29 560.04 96.29 560.04 80.39 590.01 78.88" style="fill:#9e9e9e;stroke:#263238;stroke-linecap:round;stroke-linejoin:round"></polygon><polygon points="528.07 86.91 523.38 87.25 523.41 91.83 528.07 91.6 528.07 86.91" style="fill:#9e9e9e;stroke:#263238;stroke-linecap:round;stroke-linejoin:round"></polygon><path d="M537.73,82.06l3-.48a30,30,0,0,1,.71,4.51c-.12.72-1.66,1.31-2.26,1.07s-1.66-2.61-1.9-3.44A2.08,2.08,0,0,1,537.73,82.06Z" style="fill:#fff;stroke:#263238;stroke-linecap:round;stroke-linejoin:round"></path><path d="M540.7,81.58s4.39-1.18,4.87-.59,1.66,5.34,1.3,5.7-2,1.3-2.49,1S540.7,81.58,540.7,81.58Z" style="fill:#fff;stroke:#263238;stroke-linecap:round;stroke-linejoin:round"></path><path d="M545.57,81s4-.95,4.39-.59,1.07,5.1,0,5.46a6.28,6.28,0,0,1-2.26.23Z" style="fill:#fff;stroke:#263238;stroke-linecap:round;stroke-linejoin:round"></path><path d="M550,80.4s3.2-.12,3.68.23-.24,4-.48,4.51-1.42.24-1.66-.47S550,80.4,550,80.4Z" style="fill:#fff;stroke:#263238;stroke-linecap:round;stroke-linejoin:round"></path><path d="M516.33,76.27s6.27,6.27,6.67,8.89,0,5.46.41,6.68,5.25,5.25,5.46,6.46-3.85,3.24-3.85,3.24-1.41,7.68-1.21,8.49,3,4.65,2,6.87-6.26,2.63-8.89,2l-2.63-.8-1.42,4L490.66,111l1-3.84s-7.89-8.69-8.29-18.4,8.29-16,13.34-18.39,16.38-.61,19,.2,2-2.43,3.24-.41S520.37,74.85,516.33,76.27Z" style="fill:#fff;stroke:#263238;stroke-linecap:round;stroke-linejoin:round"></path><path d="M508.24,113.87c-2.42-2.63-5.45-8.49-5.25-12.53a43,43,0,0,0-.2-8.29c-.21-.61-4.05-5.06-6.27-2s-1.62,8.69.4,10.31l2,1.61s-3,5.26-7.28,4.25c0,0-7.89-8.69-8.29-18.4s8.29-16,13.34-18.39,16.38-.61,19,.2,2-2.43,3.24-.41,1.41,4.65-2.63,6.07c0,0-13.14.61-11.72,1.82s8.89,5.66,8.28,7.88-5.05,5.06-5.45,5.66.6,7.48.6,7.48l5.06,5.46s10.51-4,11.92-3c0,0-1.41,7.68-1.21,8.49s3,4.65,2,6.87-6.26,2.63-8.89,2l-2.63-.8A21.23,21.23,0,0,1,508.24,113.87Z" style="fill:#263238;stroke:#263238;stroke-linecap:round;stroke-linejoin:round"></path><path d="M520.58,92.24a2.87,2.87,0,0,0-3.24-.4" style="fill:none;stroke:#263238;stroke-linecap:round;stroke-linejoin:round"></path><path d="M521.79,89.61s-2.43-2.83-4.85-.81" style="fill:none;stroke:#263238;stroke-linecap:round;stroke-linejoin:round"></path><path d="M519.44,106.85c-.4,1.1-.17,2.19.51,2.44s1.56-.44,2-1.54.18-2.19-.5-2.44S519.85,105.75,519.44,106.85Z" style="fill:#fff"></path><path d="M490.05,109.63s21,12.13,22.84,12.53,4.86,4.65,4.86,4.65l-30.93-12.13Z" style="fill:#fff;stroke:#263238;stroke-linecap:round;stroke-linejoin:round"></path><path d="M523.38,193.56l.33,3.68,3.19,13.9s35.82,13.22,44,18.58,7.36,6.36,6.69,7.54-31.3,60.94-31.3,60.94l2.17,1.84-5.35,11a62.15,62.15,0,0,0,5.52,5.19,51.41,51.41,0,0,0,8,4c1.34.34.83,2-.34,2.68s-11.55,1.68-13.56,1.68-13.56-7.54-14.73-8.21-6-2.17-6.2-3.68.84-5,2.35-6.19,4.35-9.38,5.19-10.05,1.84-.5,2-1.51,12.89-37.33,12.89-37.33L548,248l-33.65-8.87s-12.72,55.75-16.07,61.27-17.92,34.15-17.92,34.15,1.85,3.69,1.51,4.36-3.68,5.19-3.68,5.19,3.35,6.53,3.85,7.2,5.35,5.19,7.7,6.36.33,2.17-1.84,2.84-12.22.51-13.23,0-14.9-13.22-15.4-14.06a4.26,4.26,0,0,1,.33-4.18,55.87,55.87,0,0,0,3.18-6,21.09,21.09,0,0,1,.17-3c.17-.51,3-5.53,3-5.53l14.56-35.83-2.18-54.91L475.5,219l4.18-23.27Z" style="fill:#263238;stroke:#263238;stroke-linecap:round;stroke-linejoin:round"></path><path d="M517.35,130.44s10.38,21.43,10.38,27.79-4.85,31.65-4.85,32.32,1.5,1.67.5,3a7.55,7.55,0,0,1-3.85,2.34l-17.41-.33Z" style="fill:#fff;stroke:#263238;stroke-linecap:round;stroke-linejoin:round"></path><path d="M486.82,114.68s-4.65,8.49-5.06,10.31-4.11,19.11-4.72,29-1.55,11.83-1.55,11.83l-22.75,46.81S466,229.54,483,233.75c8.5,2.11,15.77-3.64,15.77-3.64s21.21-57.46,21.62-58.68S523.2,148,523,143s-6.06-17.59-6.06-17.59Z" style="fill:#15566C;stroke:#263238;stroke-linecap:round;stroke-linejoin:round"></path><polyline points="497.52 197.04 478.99 188.54 477.83 192.02 485.17 195.11" style="fill:none;stroke:#263238;stroke-linecap:round;stroke-linejoin:round"></polyline><path d="M520.36,171.43s-30.11,44.33-33.54,48.37-5.67,7.28-5.67,7.28a37.61,37.61,0,0,1,10.92,1l5.06,1.42,1.61.6Z" style="fill:#15566C;stroke:#263238;stroke-linecap:round;stroke-linejoin:round"></path><path d="M508.65,150.87s-11.73,6.47-16,8.08" style="fill:none;stroke:#263238;stroke-linecap:round;stroke-linejoin:round"></path><path d="M499.56,162.79a24.49,24.49,0,0,1-3.65,2.23" style="fill:none;stroke:#263238;stroke-linecap:round;stroke-linejoin:round"></path><path d="M510.47,152.08a73,73,0,0,1-6.77,7.27" style="fill:none;stroke:#263238;stroke-linecap:round;stroke-linejoin:round"></path><path d="M598.44,133l13.18-2.78s14.65,1,15.82,1.32,2.34,1.61,1.46,2-8.35-.44-8.35-.44l-2.93.15s.88,6,.15,6.88-6.88,2.64-7.47,2.64-3.51-.59-3.66-1.47,1.17-1.61,1.17-1.61a31.1,31.1,0,0,1-5.27,0c-1.17-.29-5.27-1.9-5.27-1.9Z" style="fill:#fff;stroke:#263238;stroke-linecap:round;stroke-linejoin:round"></path><polyline points="608.54 136.76 609.72 139.25 607.81 139.69" style="fill:none;stroke:#263238;stroke-linecap:round;stroke-linejoin:round"></polyline><polygon points="591.11 130.67 599.4 131.07 597.38 140.78 589.09 141.38 591.11 130.67" style="fill:#fff;stroke:#263238;stroke-linecap:round;stroke-linejoin:round"></polygon><path d="M512.89,122.16s-24.83-13.9-28.27-13.9-21.21,8-21.21,8-9.05-4.33-12.1-3.89c-4.72.67-16.57,7.33-16.57,7.33l13.42,6.36s14.1,4,18.69,2.24,16.85-15.6,18.57-15,29.41,11,29.41,11" style="fill:#263238;stroke:#263238;stroke-linecap:round;stroke-linejoin:round"></path><path d="M490.86,128.43s10.51-5.66,12.73-5.66,58,5.45,58,5.45l31.72,1.23L591.52,143l-58.61,5.24-40,4.45" style="fill:#15566C;stroke:#263238;stroke-linecap:round;stroke-linejoin:round"></path><path d="M529.55,138.72c-2.36.86-4.54,1.6-6.3,2.09" style="fill:none;stroke:#263238;stroke-linecap:round;stroke-linejoin:round"></path><path d="M551.8,129.53s-9.47,4.25-18.25,7.67" style="fill:none;stroke:#263238;stroke-linecap:round;stroke-linejoin:round"></path><path d="M554.88,130.12a82.64,82.64,0,0,1-10.4,5.27" style="fill:none;stroke:#263238;stroke-linecap:round;stroke-linejoin:round"></path><path d="M176.63,440,118.69,316.68,301.58,331s117.58,3.32,125.11,2.67c17.75-1.54,223.86-67.16,223.86-67.16L556,440Z" style="fill:#fff;stroke:#263238;stroke-linecap:round;stroke-linejoin:round"></path><line x1="468.79" y1="391.91" x2="497.82" y2="425.99" style="fill:none;stroke:#263238;stroke-linecap:round;stroke-linejoin:round"></line><line x1="426.17" y1="341.89" x2="462.05" y2="384.01" style="fill:none;stroke:#263238;stroke-linecap:round;stroke-linejoin:round"></line><line x1="238.45" y1="421.07" x2="231.49" y2="430.66" style="fill:none;stroke:#263238;stroke-linecap:round;stroke-linejoin:round"></line><line x1="299.24" y1="337.22" x2="243.29" y2="414.39" style="fill:none;stroke:#263238;stroke-linecap:round;stroke-linejoin:round"></line><path d="M234,290.69l14.78,36.13c-20-1.21-39.29-3.3-56.77-4.38l-17.16-38,4.12-23.36,16.21-1.78,16.21-1.19s12,.45,12.49.45S234,268.38,234,268.38l27.56,17.19s.47,13.44-.57,14.63S234,290.69,234,290.69Z" style="fill:#15566C;stroke:#263238;stroke-linecap:round;stroke-linejoin:round"></path><path d="M225.69,320.3c6.39-6.38,6.65-22.36,6.65-22.36" style="fill:none;stroke:#263238;stroke-linecap:round;stroke-linejoin:round"></path><path d="M235.54,311.25s-2.93,6.66-5.86,8.79" style="fill:none;stroke:#263238;stroke-linecap:round;stroke-linejoin:round"></path><path d="M253.48,277l-3.57,4.75s.75,9.08.75,10.56,5.65,7.44,7.14,7.74a19,19,0,0,0,6.54-.15c1.19-.45,2.53-7.14,2.83-8.48S253.48,277,253.48,277Z" style="fill:#fff;stroke:#263238;stroke-linecap:round;stroke-linejoin:round"></path><path d="M241.68,230.31l-3.12.89a41.05,41.05,0,0,0-1,4.46,1.25,1.25,0,0,0,1.48,1.19C239.75,236.7,241.68,230.31,241.68,230.31Z" style="fill:none;stroke:#263238;stroke-linecap:round;stroke-linejoin:round"></path><line x1="233.95" y1="290.69" x2="225.62" y2="267.64" style="fill:none;stroke:#263238;stroke-linecap:round;stroke-linejoin:round"></line><line x1="233.95" y1="290.69" x2="230.23" y2="269.87" style="fill:none;stroke:#263238;stroke-linecap:round;stroke-linejoin:round"></line><path d="M193.2,260.05s-26.2,1.38-27.39,2.57-6.65,45.37-5.61,47.3,8.52,2.93,8.52,2.93l7.89-12.78,1.69-25" style="fill:#15566C;stroke:#263238;stroke-linecap:round;stroke-linejoin:round"></path><path d="M196.94,270.57l7.57,7.81s-5.5,3.9-7.57,4.58-13.08-12.16-15.6-13.08-21.12,5.74-24.79,7.12a36,36,0,0,1-9.18,1.6L143,286.18l11.71,6.42s24.09-15.14,25.93-15.37,14.91,10.78,16.06,10.32S207,279.29,207,279.29L209.79,266l-8.26-3.67Z" style="fill:#263238;stroke:#263238;stroke-linecap:round;stroke-linejoin:round"></path><polygon points="189.81 253.7 185.53 255.35 185.04 259.63 195.9 277.9 201.66 267.04 204.96 266.38 216.81 274.11 210.23 257.98 207.26 255.51 189.81 253.7" style="fill:#fff;stroke:#263238;stroke-linecap:round;stroke-linejoin:round"></polygon><polygon points="187.84 248.27 191.13 257.82 204.79 271.64 208.09 257.65 206.93 252.88 187.84 248.27" style="fill:#fff;stroke:#263238;stroke-linecap:round;stroke-linejoin:round"></polygon><path d="M200.64,215.71s5,8.26,5.77,11.14.83,6,1.24,6.81,2.48,3.72,2.48,7,.2,11.55-.21,13-3.51,1.86-6,2.07-8.87-1.24-13-3.51a21.32,21.32,0,0,1-9.28-9.28c-2.48-4.54-2.06-10.53-1.65-11.56s0-11.55,7.22-14.23A27.08,27.08,0,0,1,200.64,215.71Z" style="fill:#fff;stroke:#263238;stroke-linecap:round;stroke-linejoin:round"></path><path d="M181.66,238.41l4.54-.42s-2.06-1.85-1.24-3.3,5.36-2.06,3.92-3.71-4.95-4.13-3.71-6.81,10.52-4.54,11.34-4.54.83,2.27.83,2.27a7.8,7.8,0,0,0,3.51-4.53c1-3.31,2.47-6.19-.21-7.22s-18.57,3.5-20.22,5.36-7.42,6.19-6.81,9.69,4.75,12.18,5.57,13.21S181.66,238.41,181.66,238.41Z" style="fill:#263238;stroke:#263238;stroke-linecap:round;stroke-linejoin:round"></path><path d="M184.34,240.68s-5.36-6-7.63-3.3,1.44,8,3.3,8.87,4.33-.42,4.33-.42" style="fill:#fff;stroke:#263238;stroke-linecap:round;stroke-linejoin:round"></path><path d="M198.54,232.13s-4.12-.66-5.77,1.81" style="fill:#fff;stroke:#263238;stroke-linecap:round;stroke-linejoin:round"></path><path d="M202.82,230.16a3.34,3.34,0,0,1,3.62-1.48" style="fill:none;stroke:#263238;stroke-linecap:round;stroke-linejoin:round"></path><path d="M206.6,238.22a2.86,2.86,0,0,1-2,3.13" style="fill:none;stroke:#263238;stroke-linecap:round;stroke-linejoin:round"></path><path d="M197.88,244.48a9.26,9.26,0,0,0,7.74.33" style="fill:none;stroke:#263238;stroke-linecap:round;stroke-linejoin:round"></path><path d="M198.81,235.18c.33,1,.13,1.95-.43,2.13s-1.28-.48-1.6-1.47-.13-2,.43-2.13S198.49,234.18,198.81,235.18Z" style="fill:#263238"></path><path d="M206.3,233.12c.33,1,.13,1.95-.43,2.13s-1.28-.48-1.6-1.47-.13-1.95.43-2.13S206,232.13,206.3,233.12Z" style="fill:#263238"></path><path d="M181.34,403.68s-12.05,7.18-14.1,10.52-15.14,39.5-16.16,44.37,4.57,10,13.34-2.31c6.41-9,18.72-39.5,20.26-44.37S181.86,401.37,181.34,403.68Z" style="fill:#9e9e9e;stroke:#263238;stroke-linecap:round;stroke-linejoin:round"></path><line x1="249.16" y1="218.69" x2="180.83" y2="405.99" style="fill:none;stroke:#263238;stroke-linecap:round;stroke-linejoin:round;stroke-width:3px"></line><path d="M245,251.13s7.94,36.82,8.24,38.75,4.16,7.44,6.39,8.63a4,4,0,0,0,1.21.38,6.22,6.22,0,0,0,7.11-6c.15-3.73.21-8.24-.29-9.57-.89-2.38-17.75-36.08-17.75-36.08s0-15-.74-15.46-6.55-2.53-7.44-1.49a6.52,6.52,0,0,0-1,3.12l-3,9.22a10,10,0,0,0,1.19,3,1.79,1.79,0,0,0,1.78.59l1.49-.15S242.72,250.39,245,251.13Z" style="fill:#fff;stroke:#263238;stroke-linecap:round;stroke-linejoin:round"></path><path d="M177.51,301.4l33.39,2.68s15,4.9,15.46,5.2.45,1.93,0,2.68a4.58,4.58,0,0,1-1.93,1.49,30.6,30.6,0,0,0-4.46,5.2c-.45.89-.6.74-2.53.3s-10.56-9.22-10.56-9.22l-38.43,5.78Z" style="fill:#fff;stroke:#263238;stroke-linecap:round;stroke-linejoin:round"></path><path d="M179.89,300.66s-3.72-3-4.76-2.83S157.39,310,157.54,311,169,316.84,169,316.84Z" style="fill:#fff;stroke:#263238;stroke-linecap:round;stroke-linejoin:round"></path><line x1="166.33" y1="296.35" x2="175.13" y2="297.83" style="fill:none;stroke:#263238;stroke-linecap:round;stroke-linejoin:round"></line><line x1="175.91" y1="296.08" x2="169.52" y2="293.15" style="fill:none;stroke:#263238;stroke-linecap:round;stroke-linejoin:round"></line><path d="M387.86,285.11S404,297.58,405.49,299.3s2.8,5.59,1.51,8.17-4.52,4.52-7.1,4.3-22.37-13.54-22.37-13.54Z" style="fill:#fff;stroke:#263238;stroke-linecap:round;stroke-linejoin:round"></path><path d="M377.79,314.6l5.38,18.47c-12.88-.62-28.2-.13-44.41-1l-1.86-19.11-3.28-13.74-2.32-2.9-2.8,2.8-17-13.12s3.87-8.6,4.09-9.25a22.79,22.79,0,0,1,6.88-8.17c4.47-3.41,10.82-2.4,11-2.37l3.93.3,24.23,2.33s10.07,1.76,11.19,2a53.66,53.66,0,0,1,6.67,3.5c2.15,1.51,11.61,11.19,11.61,11.19l-10.55,14.13Z" style="fill:#15566C;stroke:#263238;stroke-linecap:round;stroke-linejoin:round"></path><path d="M362.74,217.5s5.35,0,5.68,3.08-3.25,5.84-3.25,5.84l-5.52-4.54Z" style="fill:#263238;stroke:#263238;stroke-linecap:round;stroke-linejoin:round"></path><path d="M361.61,220.33s4.67,5.36,5.6,7.92,2.33,5.36,3.49,6.06,6.06,2.1,5.37,4-1.64,4.2-1.64,4.2.24,10.95-.46,12.12-10,2.1-10,2.1l-2.34,12.12,2.8.46,5.13,10.49-22.38.93-9.78-14.21h7.45l.7-10.49s-6.06-8.86-6.29-12.82S361.61,220.33,361.61,220.33Z" style="fill:#fff;stroke:#263238;stroke-linecap:round;stroke-linejoin:round"></path><path d="M360,214.84c-2.31,0-23.09,4.62-26.17,9-.8,1.14-1.44,3.65-2,6.77l-.22.2s-3,11.54-5,15.2a51.94,51.94,0,0,1-3.26,5.3l4.21,3.12,2-3.8L329,255.5s7.06,3.8,9.77,4.61a36,36,0,0,0,5.26,1,7,7,0,0,0,1.15.13c3.08,0,8.47-2.56,8.47-2.56l-1.8-8.47c-.77.26-5.64-1-6.93-1.79s-2.3-4.88-.51-7.44,6.41,1.54,6.41,1.54,3.6-3.34,3.08-4.11a3.5,3.5,0,0,1,.26-4.36c1.54-1.54,7.44-6.92,8.46-11.8S362.34,214.84,360,214.84Z" style="fill:#263238;stroke:#263238;stroke-linecap:round;stroke-linejoin:round"></path><path d="M367.19,235.36c.54,1.08.62,2.14.18,2.36s-1.24-.48-1.78-1.56-.62-2.14-.18-2.36S366.65,234.28,367.19,235.36Z" style="fill:#263238"></path><path d="M362.41,232.43a2.75,2.75,0,0,1,3.25-2" style="fill:none;stroke:#263238;stroke-linecap:round;stroke-linejoin:round"></path><path d="M367.93,244.6a4.73,4.73,0,0,0,4.71,0" style="fill:none;stroke:#263238;stroke-linecap:round;stroke-linejoin:round"></path><path d="M339.9,403.68s-12.06,7.18-14.11,10.52-15.13,39.5-16.16,44.37,4.57,10,13.34-2.31c6.41-9,18.73-39.5,20.26-44.37S340.41,401.37,339.9,403.68Z" style="fill:#9e9e9e;stroke:#263238;stroke-linecap:round;stroke-linejoin:round"></path><line x1="407.71" y1="218.69" x2="339.39" y2="405.99" style="fill:none;stroke:#263238;stroke-linecap:round;stroke-linejoin:round;stroke-width:3px"></line><path d="M376.67,322.39s-3.33-5.84-5.28-6.68-14.07,2.73-14.07,2.73l-36.56-6.88L328,298.68,314.14,288c-4.65,10.78-11,33.55-9.88,34.49,1.67,1.39,52.67,3.25,52.67,3.25s10.84,4.45,12,4.45a11.44,11.44,0,0,1,2.78.55c1.36.42.1,1.28.16,1.8,0-.07,1.74-.33,1.79-.41C375,329.62,376.67,322.39,376.67,322.39Z" style="fill:#fff;stroke:#263238;stroke-linecap:round;stroke-linejoin:round"></path><path d="M392.43,247.28l-3.12.89a41.05,41.05,0,0,0-1,4.46,1.25,1.25,0,0,0,1.49,1.19C390.5,253.67,392.43,247.28,392.43,247.28Z" style="fill:none;stroke:#263238;stroke-linecap:round;stroke-linejoin:round"></path><path d="M395.71,268.1s-.6,33.46-.3,35.4,4.16,7.43,6.39,8.62a4.07,4.07,0,0,0,1.22.38,6.22,6.22,0,0,0,7.11-6c.15-3.73.2-8.24-.29-9.57-.9-2.38-9.23-32.72-9.23-32.72s0-15-.74-15.47-6.54-2.52-7.44-1.48a6.52,6.52,0,0,0-1,3.12l-3,9.22a10,10,0,0,0,1.19,3,1.79,1.79,0,0,0,1.78.59l1.49-.15S393.48,267.36,395.71,268.1Z" style="fill:#fff;stroke:#263238;stroke-linecap:round;stroke-linejoin:round"></path></g></svg>
