<svg width="525" height="628" viewBox="0 0 525 628" fill="none" xmlns="http://www.w3.org/2000/svg">
<g clip-path="url(#clip0_3759_1679)">
<path d="M103.861 216.844H155.623V199.8C155.623 171.232 132.43 148.038 103.861 148.038L103.861 216.844Z" fill="#2F2E41"/>
<path d="M115.335 185.026L106.435 225.056L158.587 216.396L137.335 178.538L115.335 185.026Z" fill="#A0616A"/>
<path opacity="0.1" d="M115.335 185.026L106.435 225.056L158.587 216.396L137.335 178.538L115.335 185.026Z" fill="black"/>
<path d="M165.335 344.538H115.335L115.335 270.538H165.335V344.538Z" fill="#A0616A"/>
<path d="M82.835 405.038L93.835 464.038C93.835 464.038 86.835 505.038 107.835 547.038L121.835 590.038L142.835 587.038C142.835 587.038 129.835 555.038 129.835 541.038C129.835 527.038 126.835 473.038 126.835 473.038L128.335 411.42L82.835 405.038Z" fill="#2F2E41"/>
<path d="M145.835 586.038C145.835 586.038 121.835 577.038 119.835 590.038L120.835 596.038C120.835 596.038 111.835 623.038 124.835 625.038C137.835 627.038 149.835 630.038 150.835 624.038C151.835 618.038 151.819 610.549 149.327 605.293C146.835 600.038 145.835 586.038 145.835 586.038Z" fill="#2F2E41"/>
<path d="M158.535 395.887L164.378 455.618C164.378 455.618 182.504 493.054 174.013 539.237L172.524 584.435L151.518 587.393C151.518 587.393 155.106 553.04 151.213 539.593C147.319 526.145 135.183 473.441 135.183 473.441L116.605 414.671L158.535 395.887Z" fill="#2F2E41"/>
<path d="M148.359 587.267C148.359 587.267 168.909 571.947 174.446 583.878L175.154 589.92C175.154 589.92 191.308 613.351 179.377 618.888C167.446 624.425 156.754 630.643 154.124 625.158C151.495 619.673 149.427 612.475 150.36 606.734C151.292 600.993 148.359 587.267 148.359 587.267Z" fill="#2F2E41"/>
<path d="M94.835 310.538C71.3158 332.486 69.5709 367.212 83.335 408.538C83.335 408.538 127.335 438.538 159.335 400.538L175.335 323.538L94.835 310.538Z" fill="#2F2E41"/>
<path d="M134.335 203.538L109.335 207.538L111.335 270.538L83.335 326.538L119.335 344.538C119.335 344.538 147.335 291.538 152.335 258.538C157.335 225.538 154.335 201.538 154.335 201.538L134.335 203.538Z" fill="#15566C"/>
<path d="M153.335 205.538L178.335 209.538L176.335 272.538L182.335 330.538L168.335 346.538C168.335 346.538 140.335 293.538 135.335 260.538C130.335 227.538 133.335 203.538 133.335 203.538L153.335 205.538Z" fill="#15566C"/>
<path d="M123.335 207.039L117.835 205.539C117.835 205.539 98.3345 203.039 95.3345 211.039C92.3345 219.039 93.3345 266.039 93.3345 266.039C93.3345 266.039 88.1745 323.724 108.255 324.381C128.335 325.039 124.335 277.039 124.335 277.039L123.335 207.039Z" fill="#15566C"/>
<path d="M124.061 196.012C109.768 196.012 98.1804 184.425 98.1804 170.131C98.1804 155.837 109.768 144.25 124.061 144.25C138.355 144.25 149.942 155.837 149.942 170.131C149.942 184.425 138.355 196.012 124.061 196.012Z" fill="#A0616A"/>
<path d="M156.335 209.039L161.835 207.539C161.835 207.539 181.335 205.039 184.335 213.039C187.335 221.039 186.335 268.039 186.335 268.039C186.335 268.039 191.495 325.724 171.415 326.381C151.335 327.039 155.335 279.039 155.335 279.039L156.335 209.039Z" fill="#15566C"/>
<path d="M139.012 205.751C144.564 204.342 150.859 210.272 153.073 218.999C154.005 222.474 154.092 226.12 153.326 229.635L155.712 239.555L155.888 239.546L174.706 283.895C179.081 294.207 178.619 306.045 173.038 315.757C169.718 321.535 165.36 325.419 160.243 321.454C151.752 314.875 146.206 277.205 143.674 255.565L137.819 233.57C135.469 230.845 133.806 227.597 132.969 224.098C130.754 215.374 133.46 207.16 139.012 205.751Z" fill="#A0616A"/>
<path d="M173.611 191.069C172.294 187.066 169.695 183.562 168.533 179.512C166.989 174.134 163.702 186.064 163.381 180.479C162.772 169.862 146.568 142.552 137.318 137.307C128.068 132.061 122.755 133.642 113.331 138.569C113.331 138.569 108.756 138.86 103.061 141.672C97.3658 144.484 92.2394 148.987 90.0243 154.939C88.2685 159.658 88.4628 164.839 87.8761 169.839C86.2418 183.769 78.4332 197.017 80.1092 210.942C80.6321 215.287 82.2834 219.779 85.8356 222.335C89.3878 224.89 95.1267 224.612 97.4649 220.913C98.2627 219.651 98.6002 218.154 99.2839 216.826C99.9677 215.499 101.203 214.261 102.696 214.302C104.94 214.364 106.082 217.375 105.197 219.438C104.312 221.501 102.233 222.746 100.281 223.854C104.93 225.945 110.697 225.294 114.763 222.218C118.828 219.143 121.024 213.77 120.276 208.727C119.221 201.621 108.869 203.092 107.65 196.012C106.762 190.859 103.644 182.235 104.493 177.075C105.343 171.915 109.421 178.163 105.125 175.181C109.851 177.46 119.962 161.871 124.91 160.125C129.859 158.379 134.054 154.599 136.304 149.858C141.553 157.467 146.17 155.4 148.049 164.45C149.929 173.5 148.191 194.06 140.451 199.112C143.549 201.226 146.018 204.248 147.471 207.705C148.295 209.663 148.828 211.805 150.195 213.432C152.805 216.538 157.624 216.727 161.465 215.421C166.228 213.801 170.3 210.245 172.546 205.743C174.791 201.241 175.182 195.848 173.611 191.069Z" fill="#2F2E41"/>
<path d="M524.67 626.135C524.67 626.795 524.14 627.325 523.48 627.325H1.18988C0.52991 627.325 -0.00012207 626.795 -0.00012207 626.135C-0.00012207 625.475 0.52991 624.945 1.18988 624.945H523.48C524.14 624.945 524.67 625.475 524.67 626.135Z" fill="#3F3D56"/>
<path d="M184.631 1H390.3C413.623 1 432.53 19.907 432.53 43.2299V583.663C432.53 606.986 413.623 625.893 390.3 625.893H184.631C161.309 625.893 142.402 606.986 142.402 583.663V43.2299C142.402 19.907 161.308 1 184.631 1Z" fill="white"/>
<path d="M184.631 626.892H390.3C414.137 626.892 433.53 607.5 433.53 583.663V43.23C433.53 19.3931 414.137 0 390.3 0H184.631C160.794 0 141.401 19.3931 141.401 43.23V583.663C141.401 607.5 160.794 626.892 184.631 626.892ZM390.3 2C413.035 2 431.53 20.4956 431.53 43.23V583.663C431.53 606.397 413.035 624.892 390.3 624.892H184.631C161.897 624.892 143.401 606.397 143.401 583.663V43.23C143.401 20.4956 161.897 2 184.631 2H390.3Z" fill="#3F3D56"/>
<path d="M449.526 94.5664C451.331 94.5664 452.8 96.0347 452.8 97.8403V124.032C452.8 125.837 451.331 127.306 449.526 127.306C447.72 127.306 446.252 125.837 446.252 124.032V97.8403C446.252 96.0347 447.72 94.5664 449.526 94.5664Z" fill="#3F3D56"/>
<path d="M169.734 87.4613H252.402C255.908 87.4613 258.761 84.6086 258.761 81.1022C258.761 77.5959 255.908 74.7432 252.402 74.7432H169.734C166.227 74.7432 163.375 77.5959 163.375 81.1022C163.375 84.6086 166.227 87.4613 169.734 87.4613Z" fill="#E6E6E6"/>
<path d="M247.287 137.469H327.644C329.67 137.469 331.318 135.82 331.318 133.795C331.318 131.769 329.67 130.121 327.644 130.121H247.287C245.261 130.121 243.613 131.769 243.613 133.795C243.613 135.82 245.261 137.469 247.287 137.469Z" fill="#15566C"/>
<path d="M446.347 155.601C482.19 155.601 511.246 127.157 511.246 92.0697C511.246 56.9821 482.19 28.5381 446.347 28.5381C410.505 28.5381 381.448 56.9821 381.448 92.0697C381.448 127.157 410.505 155.601 446.347 155.601Z" fill="#15566C"/>
<path d="M466.764 60.0246C458.124 75.7573 449.484 91.4901 440.843 107.223C435.337 97.4932 429.86 87.7465 424.34 78.0246C422.434 74.667 417.248 77.687 419.159 81.0529C425.558 92.3228 431.891 103.63 438.29 114.9C439.384 116.827 442.388 116.872 443.471 114.9C452.962 97.6177 462.453 80.3353 471.945 63.0529C473.804 59.6665 468.625 56.6355 466.764 60.0246Z" fill="white"/>
<path d="M360.864 14.6582H406.742C406.913 14.6582 407.052 14.7971 407.052 14.9684V20.3093C407.052 20.4806 406.913 20.6195 406.742 20.6195H360.864C360.693 20.6195 360.554 20.4806 360.554 20.3093V14.9684C360.554 14.7971 360.693 14.6582 360.864 14.6582Z" fill="#E6E6E6"/>
<path d="M206.334 20.6191C203.7 20.6191 201.564 18.4839 201.564 15.8501C201.564 13.2162 203.7 11.0811 206.334 11.0811C208.967 11.0811 211.103 13.2162 211.103 15.8501C211.103 18.4839 208.967 20.6191 206.334 20.6191Z" fill="#E6E6E6"/>
<path d="M193.218 20.6191C190.584 20.6191 188.449 18.4839 188.449 15.8501C188.449 13.2162 190.584 11.0811 193.218 11.0811C195.852 11.0811 197.987 13.2162 197.987 15.8501C197.987 18.4839 195.852 20.6191 193.218 20.6191Z" fill="#E6E6E6"/>
<path d="M180.103 20.6191C177.469 20.6191 175.334 18.4839 175.334 15.8501C175.334 13.2162 177.469 11.0811 180.103 11.0811C182.737 11.0811 184.872 13.2162 184.872 15.8501C184.872 18.4839 182.737 20.6191 180.103 20.6191Z" fill="#E6E6E6"/>
<path d="M390.801 157.135C390.801 157.795 390.271 158.325 389.611 158.325H185.321C184.661 158.325 184.131 157.795 184.131 157.135C184.131 156.475 184.661 155.945 185.321 155.945H389.611C390.271 155.945 390.801 156.475 390.801 157.135Z" fill="#3F3D56"/>
<path d="M370.02 250.666H247.422C245.396 250.666 243.748 249.018 243.748 246.992C243.748 244.966 245.396 243.318 247.422 243.318H370.02C372.046 243.318 373.694 244.966 373.694 246.992C373.694 249.018 372.046 250.666 370.02 250.666Z" fill="#15566C"/>
<path d="M370.02 303.666H247.422C245.396 303.666 243.748 302.018 243.748 299.992C243.748 297.966 245.396 296.318 247.422 296.318H370.02C372.046 296.318 373.694 297.966 373.694 299.992C373.694 302.018 372.046 303.666 370.02 303.666Z" fill="#15566C"/>
<path d="M370.02 356.666H247.422C245.396 356.666 243.748 355.018 243.748 352.992C243.748 350.966 245.396 349.318 247.422 349.318H370.02C372.046 349.318 373.694 350.966 373.694 352.992C373.694 355.018 372.046 356.666 370.02 356.666Z" fill="#15566C"/>
<path d="M210.238 255.538C215.209 255.538 219.238 251.509 219.238 246.538C219.238 241.568 215.209 237.538 210.238 237.538C205.268 237.538 201.238 241.568 201.238 246.538C201.238 251.509 205.268 255.538 210.238 255.538Z" fill="#15566C"/>
<path d="M209.238 261.538V259.538C216.682 259.538 222.738 253.482 222.738 246.038C222.738 238.594 216.682 232.538 209.238 232.538V230.538C217.785 230.538 224.738 237.491 224.738 246.038C224.738 254.585 217.785 261.538 209.238 261.538Z" fill="#3F3D56"/>
<path d="M210.238 308.538C215.209 308.538 219.238 304.509 219.238 299.538C219.238 294.568 215.209 290.538 210.238 290.538C205.268 290.538 201.238 294.568 201.238 299.538C201.238 304.509 205.268 308.538 210.238 308.538Z" fill="#15566C"/>
<path d="M209.238 314.538V312.538C216.682 312.538 222.738 306.482 222.738 299.038C222.738 291.594 216.682 285.538 209.238 285.538V283.538C217.785 283.538 224.738 290.491 224.738 299.038C224.738 307.585 217.785 314.538 209.238 314.538Z" fill="#3F3D56"/>
<path d="M210.238 361.538C215.209 361.538 219.238 357.509 219.238 352.538C219.238 347.568 215.209 343.538 210.238 343.538C205.268 343.538 201.238 347.568 201.238 352.538C201.238 357.509 205.268 361.538 210.238 361.538Z" fill="#15566C"/>
<path d="M209.238 367.538V365.538C216.682 365.538 222.738 359.482 222.738 352.038C222.738 344.594 216.682 338.538 209.238 338.538V336.538C217.785 336.538 224.738 343.491 224.738 352.038C224.738 360.585 217.785 367.538 209.238 367.538Z" fill="#3F3D56"/>
<path d="M140.658 203.751C135.106 202.342 128.811 208.272 126.597 216.999C125.665 220.474 125.578 224.12 126.344 227.635L123.958 237.555L123.782 237.546L104.964 281.895C100.589 292.207 101.051 304.045 106.632 313.757C109.952 319.535 114.31 323.419 119.427 319.454C127.918 312.875 133.464 275.205 135.996 253.565L141.851 231.57C144.201 228.845 145.864 225.597 146.701 222.098C148.916 213.374 146.21 205.16 140.658 203.751Z" fill="#A0616A"/>
<path d="M119.281 228.053L140.335 243.019L129.808 309.313L116.605 326.388L101.226 321.069L96.7293 289.73L102.021 259.423L119.281 228.053Z" fill="#15566C"/>
</g>
<defs>
<clipPath id="clip0_3759_1679">
<rect width="524.67" height="627.583" fill="white" transform="matrix(-1 0 0 1 524.67 0)"/>
</clipPath>
</defs>
</svg>
