<svg width="433" height="396" viewBox="0 0 433 396" fill="none" xmlns="http://www.w3.org/2000/svg">
<path fill-rule="evenodd" clip-rule="evenodd" d="M58.637 33.4647C50.978 36.1947 45.066 44.4837 45.022 52.5537C44.987 58.9657 49.285 66.4947 54.847 69.7647C61.072 73.4237 70.659 73.6447 76.111 70.2537C81.578 66.8547 85.263 60.8767 85.787 54.5597C86.387 47.3187 84.712 42.9107 79.554 38.1557C73.181 32.2817 66.291 30.7357 58.637 33.4647ZM151.625 33.4687C143.22 36.4647 137.265 45.7887 138.239 54.4287C139.956 69.6607 157.134 77.8957 169.761 69.5397C177.126 64.6657 181.016 53.4317 178.045 45.6167C176.312 41.0607 170.13 35.2317 165.276 33.5787C159.683 31.6727 156.731 31.6487 151.625 33.4687ZM257.5 33.2067C248.928 36.2027 244 43.3427 244 52.7637C244 66.2617 256.514 75.6307 269.773 72.0607C278.119 69.8137 284.956 61.0047 284.956 52.4997C284.956 39.1087 270.226 28.7577 257.5 33.2067ZM362.637 33.4077C357.675 35.2497 353.237 39.4427 350.896 44.4997C344.324 58.6937 356.961 74.7847 372.956 72.5917C384.905 70.9547 392.844 58.5717 389.394 46.9537C386.131 35.9677 373.273 29.4577 362.637 33.4077ZM44.277 74.1217C39.587 75.4617 34.236 81.4647 32.49 87.3447C31.671 90.1047 31 96.0907 31 100.647C31 108.429 31.182 109.138 34.007 112.355C35.959 114.578 38.305 116.022 40.692 116.47C46.287 117.52 90.229 117.244 93.13 116.141C96.716 114.777 100.8 109.583 101.588 105.384C102.316 101.504 101.595 93.5837 99.996 87.8877C98.322 81.9227 93.665 76.4187 88.682 74.5157L84.216 72.8107L77.873 75.9047C69.809 79.8387 63.053 80.0647 56.217 76.6297C49.832 73.4207 48.045 73.0447 44.277 74.1217ZM137.256 74.1267C132.707 75.4267 127.543 80.9577 125.625 86.5857C124.607 89.5737 124 94.6577 124 100.193C124 108.83 124.076 109.112 127.364 112.7L130.728 116.371L144.614 116.96C152.251 117.284 164.655 117.313 172.178 117.024C183.929 116.574 186.253 116.208 188.678 114.429C193.564 110.843 195.204 106.461 194.639 98.4997C193.73 85.6757 189.246 77.4047 181.625 74.4947C177.216 72.8107 177.216 72.8107 170.873 75.9047C162.723 79.8807 155.405 80.1197 148.832 76.6257C142.801 73.4187 141.056 73.0417 137.256 74.1267ZM241.459 74.8797C232.989 78.7267 229.627 85.8657 229.548 100.173C229.492 110.33 231.192 113.664 237.509 115.778C242.386 117.41 287.421 117.549 291.655 115.945C296.043 114.282 298.66 111.285 300.046 106.337C302.568 97.3267 297.231 80.1017 290.702 76.1797C285.145 72.8417 282.891 72.8187 276.102 76.0287C267.631 80.0357 261.535 80.0357 253.475 76.0307C246.408 72.5197 246.611 72.5387 241.459 74.8797ZM348.791 73.9877C340.999 76.3367 336.82 82.7407 335.081 94.9997C333.402 106.841 335.575 112.616 342.872 115.702C345.486 116.808 351.743 117.126 370.713 117.115C392.559 117.103 395.564 116.903 398.749 115.25C404.409 112.313 406.207 108.006 405.743 98.4997C405.115 85.6217 400.668 77.5657 392.457 74.4307C388.259 72.8267 388.151 72.8417 381.873 75.9047C373.314 80.0807 367.135 80.1057 359 75.9997C352.565 72.7517 352.764 72.7907 348.791 73.9877ZM258.764 147.996C243.644 152.548 238.595 171.45 249.589 182.343C262.932 195.563 285 186.588 285 167.941C285 161.514 282.844 156.878 277.878 152.628C272.101 147.683 265.288 146.031 258.764 147.996ZM56.5 149.659C51.398 152.344 48.123 156.115 46.407 161.28C43.26 170.753 46.466 179.803 54.852 185.121C62.755 190.133 74.334 188.66 80.702 181.834C89.814 172.065 86.857 156.091 74.79 149.903C70.189 147.543 60.759 147.417 56.5 149.659ZM148.871 150.006C134.87 157.404 134.681 177.875 148.542 185.725C156.134 190.025 167.735 188.231 173.702 181.834C180.598 174.441 180.598 161.559 173.702 154.166C167.948 147.997 156.35 146.054 148.871 150.006ZM359.542 150.275C357.364 151.508 354.214 154.466 352.542 156.848C349.888 160.627 349.501 162.03 349.507 167.84C349.515 176.019 352.133 180.86 358.852 185.121C366.75 190.13 378.458 188.643 384.633 181.847C388.862 177.194 390.238 173.083 389.812 166.381C389.481 161.187 388.872 159.406 386.36 156.287C381.725 150.532 376.62 148.033 369.5 148.033C365.128 148.033 362.426 148.641 359.542 150.275ZM44.007 189.593C35.419 193.317 31.801 199.858 31.195 212.754C30.694 223.431 31.74 226.965 36.382 230.276C39.417 232.441 40.21 232.5 66.044 232.5C89.72 232.5 92.879 232.309 95.28 230.736C99.376 228.052 101.131 224.649 101.709 218.269C102.728 207.035 98.027 195.427 90.634 190.919C86.414 188.345 83.134 188.507 77.209 191.581C70.016 195.313 62.189 195.134 54.104 191.053C50.778 189.374 47.932 188.018 47.779 188.039C47.625 188.061 45.928 188.76 44.007 189.593ZM136.397 189.907C127.565 193.918 124 201.445 124 216.082C124 224.839 124.037 224.97 127.448 228.382C131.869 232.802 136.357 233.339 164.624 232.83C187.217 232.423 188.307 232.183 192.18 226.752C194.192 223.932 194.492 222.352 194.44 214.858C194.387 207.214 194.009 205.46 191.166 199.685C188.368 194.003 187.293 192.827 182.892 190.634C177.433 187.913 176.905 187.967 168.878 192.062C162.5 195.316 154.879 194.978 147.198 191.1C143.821 189.395 140.932 188.01 140.779 188.022C140.625 188.034 138.654 188.882 136.397 189.907ZM243.211 189.129C238.555 190.472 232.707 196.701 231.105 202.024C230.364 204.486 229.554 210.1 229.305 214.5C228.759 224.135 230.538 228.274 236.592 231.45C240.086 233.283 242.672 233.537 261 233.847C289.802 234.335 295.849 232.926 299.534 224.872C304.13 214.827 298.257 194.723 289.515 190.574C284.77 188.322 280.932 188.62 275.492 191.661C268.542 195.545 261.463 195.396 253.279 191.194C249.857 189.437 246.932 188.041 246.779 188.09C246.625 188.14 245.02 188.607 243.211 189.129ZM348.007 189.601C340.436 192.867 336.903 198.474 335.154 210C333.546 220.596 335.246 226.905 340.709 230.608C343.273 232.346 345.657 232.5 370.043 232.5C393.942 232.5 396.861 232.32 399.341 230.696C404.031 227.624 405.992 223.276 405.996 215.944C406.004 203.066 399.965 191.859 391.642 189.305C388.315 188.284 387.424 188.457 382.497 191.087C375.168 194.998 365.632 195.195 359.288 191.567C353.299 188.143 351.938 187.906 348.007 189.601ZM152.06 270.301C146.824 271.971 140.413 278.689 138.995 283.99C136.561 293.09 140.05 302.382 147.683 307.127C150.773 309.048 152.864 309.5 158.664 309.5C165.011 309.5 166.314 309.158 170.087 306.5C177.99 300.934 181.051 290.846 177.452 282.232C175.296 277.071 172.321 274.123 166.5 271.377C161.12 268.84 157.489 268.57 152.06 270.301ZM258.764 269.944C249.502 272.907 244 280.149 244 289.378C244 308.162 266.195 317.276 278.755 303.65C285.747 296.064 286.826 286.869 281.643 279.037C276.968 271.972 266.023 267.623 258.764 269.944ZM134 313.14C126.986 317.414 124.101 324.511 124.042 337.644C124.002 346.302 124.149 346.948 126.795 349.781C131.077 354.364 137.466 355.257 162.872 354.821C186.39 354.418 188.882 353.882 192.433 348.462C198.343 339.443 192.676 317.025 183.349 312.521C178.851 310.35 175.661 310.624 169.717 313.694C165.909 315.659 163.014 316.387 159 316.387C154.986 316.387 152.091 315.659 148.283 313.694C141.993 310.446 138.635 310.316 134 313.14ZM240.18 312.682C233.379 316.033 230.176 322.921 229.335 336C228.832 343.808 228.983 344.785 231.181 348C235.22 353.906 237.275 354.404 259.348 354.829C270.264 355.04 282.176 354.893 285.819 354.503C291.671 353.876 292.871 353.365 296.128 350.107C300.956 345.279 301.851 339.924 299.556 329.605C297.685 321.197 295.019 316.604 290.078 313.274C285.661 310.297 282.084 310.404 275.717 313.703C268.39 317.499 260.284 317.507 253.912 313.724C248.68 310.618 244.944 310.334 240.18 312.682Z" fill="#E4CBAE"/>
<path fill-rule="evenodd" clip-rule="evenodd" d="M255 150.249C252.525 151.571 249.15 154.57 247.5 156.913C244.875 160.639 244.5 162.027 244.5 168C244.5 173.973 244.875 175.361 247.5 179.087C253.976 188.281 266.708 190.768 275.959 184.646C280.753 181.473 284.98 173.673 284.98 168C284.98 162.327 280.753 154.527 275.959 151.354C269.95 147.377 261.234 146.918 255 150.249ZM241.502 190.575C233.343 194.83 230.347 199.416 229.745 213.5V218.5V224.945L233.176 228.376C237.635 232.835 241.2 233.272 269.573 232.837C294.364 232.458 295.326 232.202 298.987 225.025C301.402 220.291 301.538 214.866 299.445 206.787C296.84 196.735 291.943 190.739 285.245 189.399C283.376 189.025 280.42 189.833 275.999 191.924C267.522 195.934 262.514 195.951 254.16 191.999C246.9 188.565 245.632 188.422 241.502 190.575Z" fill="#D1894C"/>
</svg>
