<svg xmlns="http://www.w3.org/2000/svg" viewBox="0 0 750 500"><g id="freepik--background-simple--inject-30"><path d="M633.16,74.16A261.59,261.59,0,0,1,600,81.61c-50.9,7.81-168.25,24.53-225.12,22.13C301,100.62,67.06,17.43,49.38,65.26S36.9,463.53,71.22,470.81s156-49.91,227.73-52S542.28,472.89,613,476s77-8.32,93.59-69.67,34.31-263.09,31.2-309.88C735.12,56.68,659.6,66.49,633.16,74.16Z" style="fill:#15566C"></path><path d="M633.16,74.16A261.59,261.59,0,0,1,600,81.61c-50.9,7.81-168.25,24.53-225.12,22.13C301,100.62,67.06,17.43,49.38,65.26S36.9,463.53,71.22,470.81s156-49.91,227.73-52S542.28,472.89,613,476s77-8.32,93.59-69.67,34.31-263.09,31.2-309.88C735.12,56.68,659.6,66.49,633.16,74.16Z" style="fill:#fff;opacity:0.7000000000000001"></path></g><g id="freepik--Gears--inject-30"><path d="M653.21,440.65l-6.66,13.85,14.34,6.9,6.86-14.24a34.4,34.4,0,0,0,14.93-.36l6.62,13.75,14.34-6.91-6.73-14a35.32,35.32,0,0,0,9.32-12.08l14.46,3.3,3.54-15.51L709.57,412a34.92,34.92,0,0,0-3.75-15.19l11.25-9-9.92-12.45-11.53,9.19a34.94,34.94,0,0,0-14.44-6.49V363.86H665.26V378.7a35.13,35.13,0,0,0-13.83,7.35L640,377l-9.92,12.45,11.92,9.5a35,35,0,0,0-2.78,13.72c0,.45,0,.87.06,1.31l-14.69,3.36,3.54,15.52,15.3-3.5A35.32,35.32,0,0,0,653.21,440.65Zm21.21-12.4A15.62,15.62,0,1,1,690,412.63,15.61,15.61,0,0,1,674.42,428.25Z" style="fill:none;stroke:#000;stroke-linecap:round;stroke-linejoin:round;opacity:0.30000000000000004"></path><path d="M622.14,362.33l-5.48,11.36,11.77,5.67,5.63-11.69a28.21,28.21,0,0,0,5.48.54,29.12,29.12,0,0,0,6.77-.83l5.43,11.28L663.51,373,658,361.53a28.94,28.94,0,0,0,7.64-9.91l11.86,2.71,2.91-12.73-12-2.75a28.66,28.66,0,0,0-3.07-12.46l9.23-7.36-8.15-10.21-9.45,7.54A28.71,28.71,0,0,0,645.08,311V299.34H632v12.17a28.88,28.88,0,0,0-11.35,6l-9.35-7.46-8.14,10.21,9.78,7.8a28.71,28.71,0,0,0-2.28,11.26c0,.36,0,.71.05,1.07l-12.05,2.76,2.9,12.73L614.13,353A28.87,28.87,0,0,0,622.14,362.33Zm17.4-10.17a12.81,12.81,0,1,1,12.81-12.81A12.82,12.82,0,0,1,639.54,352.16Z" style="fill:none;stroke:#000;stroke-linecap:round;stroke-linejoin:round;opacity:0.30000000000000004"></path><path d="M146.8,228.51l-6.67,13.85,14.34,6.91L161.33,235a34,34,0,0,0,14.93-.36l6.62,13.75,14.34-6.9-6.72-14a35.29,35.29,0,0,0,9.31-12.08l14.46,3.3,3.54-15.52-14.66-3.34a34.83,34.83,0,0,0-3.75-15.2l11.25-9-9.92-12.44-11.52,9.19A34.85,34.85,0,0,0,174.76,166V151.73H158.84v14.84A35,35,0,0,0,145,173.92l-11.39-9.09-9.93,12.44,11.92,9.51a35,35,0,0,0-2.78,13.72c0,.44,0,.87.07,1.31l-14.7,3.35,3.54,15.52,15.3-3.49A35.09,35.09,0,0,0,146.8,228.51ZM168,216.12a15.62,15.62,0,1,1,15.61-15.62A15.62,15.62,0,0,1,168,216.12Z" style="fill:none;stroke:#000;stroke-linecap:round;stroke-linejoin:round;opacity:0.30000000000000004"></path><path d="M115.72,150.2l-5.47,11.36L122,167.23l5.63-11.69a29.09,29.09,0,0,0,5.48.53,28.53,28.53,0,0,0,6.77-.83l5.43,11.28,11.77-5.66-5.52-11.46a28.91,28.91,0,0,0,7.64-9.91l11.86,2.71L174,129.46l-12-2.74a28.52,28.52,0,0,0-3.07-12.46l9.23-7.36L160,96.69l-9.46,7.53a28.64,28.64,0,0,0-11.85-5.32V87.2H125.6V99.38a28.88,28.88,0,0,0-11.35,6L104.9,98l-8.14,10.21,9.78,7.8a28.69,28.69,0,0,0-2.28,11.25c0,.37,0,.72,0,1.08l-12,2.75,2.9,12.73,12.55-2.86A28.87,28.87,0,0,0,115.72,150.2ZM133.12,140a12.82,12.82,0,1,1,12.81-12.82A12.81,12.81,0,0,1,133.12,140Z" style="fill:none;stroke:#000;stroke-linecap:round;stroke-linejoin:round;opacity:0.30000000000000004"></path><path d="M361,391.32,347.6,419.15,376.43,433l13.79-28.63a68.88,68.88,0,0,0,30-.73l13.31,27.65,28.83-13.89-13.52-28.07a70.87,70.87,0,0,0,18.72-24.29l29.07,6.64,7.12-31.2-29.47-6.72a70.11,70.11,0,0,0-7.53-30.54l22.61-18-19.95-25-23.16,18.47a70.33,70.33,0,0,0-29-13.05V237h-32V266.8a70.36,70.36,0,0,0-27.8,14.76l-22.91-18.27-19.95,25,24,19.1A70.42,70.42,0,0,0,332.93,335c0,.89.1,1.75.13,2.63l-29.53,6.74,7.12,31.2,30.74-7A71,71,0,0,0,361,391.32Zm42.63-24.93A31.39,31.39,0,1,1,435,335,31.39,31.39,0,0,1,403.64,366.39Z" style="fill:none;stroke:#000;stroke-linecap:round;stroke-linejoin:round;opacity:0.30000000000000004"></path><path d="M298.53,233.89l-11,22.83,23.66,11.39,11.31-23.49a56.46,56.46,0,0,0,24.62-.59L358,266.7l23.66-11.39-11.1-23A58.2,58.2,0,0,0,386,212.36l23.85,5.44,5.84-25.59-24.17-5.52a57.79,57.79,0,0,0-6.18-25.06l18.55-14.79-16.37-20.53-19,15.16a57.66,57.66,0,0,0-23.83-10.71V107.25H318.4v24.48a57.7,57.7,0,0,0-22.81,12.11l-18.8-15-16.36,20.53,19.65,15.67a57.82,57.82,0,0,0-4.58,22.63c0,.73.08,1.44.11,2.16l-24.23,5.53,5.84,25.6,25.22-5.76A58.21,58.21,0,0,0,298.53,233.89Zm35-20.45a25.76,25.76,0,1,1,25.76-25.76A25.75,25.75,0,0,1,333.51,213.44Z" style="fill:none;stroke:#000;stroke-linecap:round;stroke-linejoin:round;opacity:0.30000000000000004"></path></g><g id="freepik--Floor--inject-30"><line x1="693.06" y1="472.31" x2="37.01" y2="472.31" style="fill:none;stroke:#263238;stroke-miterlimit:10"></line><line x1="717.95" y1="472.31" x2="701.38" y2="472.31" style="fill:none;stroke:#263238;stroke-miterlimit:10"></line></g><g id="freepik--character-4--inject-30"><path d="M142,277.19l23.76,24.22s15.81-1.4,16-.6,2.21,8.2,2,8.81-3.41,2.2-3.41,2.2l2.41,2s-.21,2-2.61,1.6a10.89,10.89,0,0,1-4.4-2s-7.21-1.2-8.41-1.6-5.81-4.61-5.81-4.61l-25-13.38s1.4-12.42,2-13.82S142,277.19,142,277.19Z" style="fill:#fff;stroke:#263238;stroke-miterlimit:10"></path><line x1="180.4" y1="311.82" x2="176.6" y2="306.81" style="fill:none;stroke:#263238;stroke-miterlimit:10"></line><line x1="178" y1="308.41" x2="179.4" y2="307.21" style="fill:none;stroke:#263238;stroke-miterlimit:10"></line><path d="M137.08,295.17s-.4,13.38-2.15,26.77c-.92,7-2.06,16-2.06,16s21.48,36.59,21.48,38.87-16.28,74.55-16.28,74.55l1.71,4.85-.57,2.57,7.71,10.86,4.86,3.71s-5.43,3.14-8.86,3.14S118.36,461,117.22,459.6,120.93,449,120.93,449s2.57-4.28,2.57-5.71a27.8,27.8,0,0,1,1.43-5.42l5.71-57.13-9.71-10.28-.85,15.42L95.8,453.6s2.28.86,2.28,1.72a35.38,35.38,0,0,1-.57,3.71s5.14,6.28,6.29,6.57,8,3.71,7.42,5.43-15.42,2-15.42,2-12.57-10.29-14.28-11.71-3.43-3.43-2.29-7.14A19.78,19.78,0,0,1,83,447.61L96.37,380.2,86.09,334.5s-8.57-10.28-5.43-24.27S96.37,282,96.37,282Z" style="fill:#263238;stroke:#263238;stroke-miterlimit:10"></path><line x1="118.36" y1="366.49" x2="89.8" y2="337.65" style="fill:none;stroke:#8c8c8c;stroke-miterlimit:10"></line><path d="M130.93,333.36s-16.57-24.27-20.57-28.56-13.7-6.57-13.7-6.57" style="fill:none;stroke:#8c8c8c;stroke-miterlimit:10"></path><path d="M140.22,227.16s9.61,4.4,10.41,6.8-2,21.83-2,21.83,2,7,0,12.61S140,284.22,140,284.22s.8,12-1.4,13-12.81,3.6-22,2.2-24.43-12.41-24.83-14S95,266.59,95,266.59,91,226.26,92.24,225.26s17.35-2.91,17.35-2.91Z" style="fill:#15566C;stroke:#263238;stroke-miterlimit:10"></path><line x1="131.93" y1="275.02" x2="113.31" y2="281.37" style="fill:none;stroke:#263238;stroke-miterlimit:10"></line><line x1="138.28" y1="276.29" x2="125.59" y2="280.52" style="fill:none;stroke:#263238;stroke-miterlimit:10"></line><path d="M109.25,175.35s-9.51-6.28-14.84-4.75-9.32,10.27-9.89,14.45-9.32,13.12-10.27,20,12,16.55,15.22,16.55,15.59-6.66,15.59-12.55-.76-14.08.38-19.21S109.25,175.35,109.25,175.35Z" style="fill:#263238;stroke:#263238;stroke-miterlimit:10"></path><path d="M136.45,172.12s7-1.91,8.94-1.52,5.51,6.08,5.51,8.17a16.14,16.14,0,0,1-2.09,6.66c-.76,1.14-7.8-9.32-8.75-9.89A33.54,33.54,0,0,1,136.45,172.12Z" style="fill:#263238;stroke:#263238;stroke-miterlimit:10"></path><path d="M142.53,176.11s6.09,8,6.28,12,0,4.95.57,6.47,5.14,4.95,4.76,5.9-4.19,4-4.19,4-1.29,13.1-2.49,13.7-8.73-2.67-8.73-2.67-1.31,8.27-1.51,9.07,3,2.61,3,2.61l1.8,15.41L114.39,241l-4.8-18.62,6.21-3.6,4.29-8.78s-14.46-9.89-15.79-15.6,1.14-17.12,7.42-21.11,15-5.52,21.11-3.24S141.2,174.78,142.53,176.11Z" style="fill:#fff;stroke:#263238;stroke-miterlimit:10"></path><path d="M111.72,173.26c6.28-4,15-5.52,21.11-3.24a26,26,0,0,1,7.83,4.33l0,.05s.57,8.75-.95,9.7-5.9,3.61-6.09,4.56-.76,4.38-2.09,4.38-3.61-4.38-7.23-3.81-5.51,7.23-4,10.85,6.66,3,6.09,4.56-6.28,5.33-6.28,5.33-14.46-9.89-15.79-15.6S105.44,177.25,111.72,173.26Z" style="fill:#263238;stroke:#263238;stroke-miterlimit:10"></path><path d="M144.82,194.19c.13,1.3.69,2.32,1.27,2.26s.94-1.16.81-2.47-.69-2.32-1.27-2.26S144.7,192.88,144.82,194.19Z" style="fill:#263238"></path><path d="M147.1,189.81s-1.71-2.48-4-.77" style="fill:none;stroke:#263238;stroke-miterlimit:10"></path><polygon points="138.73 215.48 133.4 213.58 138.22 220.55 138.73 215.48" style="fill:#263238;stroke:#263238;stroke-miterlimit:10"></polygon><line x1="148.05" y1="206.73" x2="145.39" y2="205.97" style="fill:none;stroke:#263238;stroke-miterlimit:10"></line><path d="M56.24,332.57l9.82-9.81L77,279.61,89.57,286,71.66,328.36l-1.6,8.41s-1.4,5-1.4,5.61-1,2-1.6,1.2a11.62,11.62,0,0,1-.51-3.67c-2.45,2.17-5.36,4.67-5.7,4.67-.6,0-.8-.2-1.8-.8s-.6-2.6-.6-2.6Z" style="fill:#fff;stroke:#263238;stroke-miterlimit:10"></path><path d="M102.87,254.82l-11.3,28.4L78,277.61s10.28-48.74,12.28-50.54a15.49,15.49,0,0,1,7.41-3" style="fill:#15566C;stroke:#263238;stroke-miterlimit:10"></path><polygon points="78.16 273.01 93.97 281.01 90.37 291.23 74.95 284.02 78.16 273.01" style="fill:#15566C;stroke:#263238;stroke-miterlimit:10"></polygon></g><g id="freepik--character-3--inject-30"><path d="M252.32,292l21.43,22.44,11.64-.67s4.73,5.56,4.56,6.75a3.52,3.52,0,0,1-1.35,2s1.35,2.36.5,3-8.6,4.89-10,4.72S268.69,321,268.69,321l-17.21-12Z" style="fill:#b8b8b8;stroke:#263238;stroke-miterlimit:10"></path><path d="M288.6,322.56l-4.9,2.19a1.5,1.5,0,0,1-1.18-1.85,9.42,9.42,0,0,1,1-3.21l-6.58,2.7" style="fill:none;stroke:#263238;stroke-miterlimit:10"></path><path d="M254.92,303.5,256,328l26.75,53.71L300,453.5l3.29,2.27s9.87,2.67,11.11,2.67,7.2-2.06,7.41-.61-4.94,6-7.82,7.2-9.26,4.11-11.73,4.52-11.14,4.68-11.85,1.72-3.79-10.77-3.79-10.77-3.7-7-3.91-8-3.09-11.32-3.09-11.32L257.8,382.31l-19.34-18.73-6.59,30.25L198.68,450.9s2.06,2.68,1.85,3.71a22.36,22.36,0,0,1-1.44,3.49l8.44,6.79s5.76,2.68,4.94,3.91-12.76,1.86-12.76,1.86-15.43-9.06-16.25-9.88-3.5-1.44-3.3-3.71,2.88-8,3.09-9.46,9.89-21.12,10.1-21.95,15.51-36.84,15.51-36.84-3.32-70.71-3.32-72.15,2.26-17.08,2.26-17.08Z" style="fill:#263238;stroke:#263238;stroke-miterlimit:10"></path><path d="M255.64,224.82s4.89,24.8,5.06,32.06-2,24-2,24S258,305.31,257,306.15a15,15,0,0,1-3.55,1.69,179.49,179.49,0,0,1-25.14-.68c-12.15-1.35-21.26-4.05-21.43-5.4a10.79,10.79,0,0,1-.33-3.2c.16-1.18,2.36-9.79,2.36-9.79s7.42-53,9.78-61.59S229.82,210,229.82,210Z" style="fill:#15566C;stroke:#263238;stroke-miterlimit:10"></path><path d="M259.06,238.78s10.53,30.31,13.08,39.24,7.34,22.65,7.34,22.65l-1.59,8-8.62-9.25Z" style="fill:#263238;stroke:#263238;stroke-miterlimit:10"></path><polygon points="255.64 224.82 259.06 238.78 248.53 224.1 255.64 224.82" style="fill:#263238;stroke:#263238;stroke-miterlimit:10"></polygon><path d="M264.57,169s7.7,7.7,8.14,11.44.88,9,2.2,11,4.41,3.3,4.19,4.4-1.1,1.54-2,2a28.56,28.56,0,0,1-3.09,1.1s-1.32,12.32-2.86,13.42-2.64,1.32-3.52,1.1l-5.5-1.32-8,9.85L234,207.49l3.24-7.89s-5.72-6.6-6.82-15.19,8.58-17.82,17.82-18.7A29.32,29.32,0,0,1,264.57,169Z" style="fill:#b8b8b8;stroke:#263238;stroke-miterlimit:10"></path><path d="M237.28,199.6s-5.72-6.6-6.82-15.19,8.58-17.82,17.82-18.7a29.32,29.32,0,0,1,16.29,3.3s.69.69,1.65,1.74l-.78,0s-8.26-2.36-10.12.84,3.38,5.4,3.38,7.6-3.21,10.46-4.9,10.12-3.37-4.72-6.75-3.37-3.37,6.58-1.52,9.11a15.07,15.07,0,0,0,5.4,4,13.19,13.19,0,0,1-7.42,2.53,15,15,0,0,1-6.33-1.78Z" style="fill:#263238;stroke:#263238;stroke-miterlimit:10"></path><ellipse cx="269.49" cy="188.34" rx="1.01" ry="2.36" style="fill:#263238"></ellipse><path d="M271.69,183.78s-3.88-4.22-5.74-.67" style="fill:none;stroke:#263238;stroke-miterlimit:10"></path><line x1="272.36" y1="202.01" x2="269.83" y2="201.84" style="fill:none;stroke:#263238;stroke-miterlimit:10"></line><polygon points="262.15 212.14 256.16 209.43 258.86 215.5 262.15 212.14" style="fill:#263238;stroke:#263238;stroke-miterlimit:10"></polygon><polygon points="233.74 204.93 257.49 223.25 254.05 229.88 229.26 209.29 233.74 204.93" style="fill:#15566C;stroke:#263238;stroke-miterlimit:10"></polygon><path d="M227.29,276l1.18,46.57,5.74,4.22s1.18,8.94,1.69,9.95,1.68,2.36.33,2.87-3.2-2.19-3.2-2.19l-.17,5.73s1.35,2.53.84,3-2.53.68-3,0-1.52-2.36-2-2.87-3.21-1.69-4.39-3.2-2.7-5.91-3.2-7.43-1-13-1-13-10.12-39-10.79-43.2a32.47,32.47,0,0,1-.34-7.59S224.42,273.08,227.29,276Z" style="fill:#b8b8b8;stroke:#263238;stroke-miterlimit:10"></path><path d="M246.69,242.2l-14.84,28.85-22.61-7.76s10.63-32.73,11.81-36.78,4.72-9.45,8.94-10.13" style="fill:#15566C;stroke:#263238;stroke-miterlimit:10"></path><path d="M209.74,258.74S225.43,263,228,264.47s5.9,3.55,5.9,4.73-4.22,9.45-5.06,9.62-15-5.57-15-5.57-6.58-.68-6.75-2.87S209.74,258.74,209.74,258.74Z" style="fill:#15566C;stroke:#263238;stroke-miterlimit:10"></path></g><g id="freepik--character-2--inject-30"><path d="M441.05,392.3l13,62.34s11.5,1.77,16.14.88,7.3-.88,7.08,1.11-25.65,14.59-28.08,14.59-3.54-1.1-4-2.43-3.09-15.7-3.09-15.7l-21.67-58.58Z" style="fill:#fff;stroke:#263238;stroke-miterlimit:10"></path><path d="M470.23,455.52c4.65-.88,7.3-.88,7.08,1.11s-25.65,14.59-28.08,14.59-3.54-1.1-4-2.43c-.2-.62-.88-4-1.56-7.53,4.66-.76,11.95-2.2,11.95-2.2l-1.55-4.42S465.59,456.41,470.23,455.52Z" style="fill:#fff;stroke:#263238;stroke-miterlimit:10"></path><path d="M374.07,390.53l-27.59,62.32s6,10.83,9.29,12.6,6.41,3.09,4.42,5.08-8.84,1.77-10.61,1.77-12.16-9.5-13.26-9.5-4.87-3.76-3.54-6,4.64-6.64,4.64-6.64L354,385.67Z" style="fill:#fff;stroke:#263238;stroke-miterlimit:10"></path><path d="M349.58,472.3c-1.77,0-12.16-9.5-13.26-9.5s-4.87-3.76-3.54-6c.68-1.14,1.88-2.85,2.9-4.26l7.05,4.48,3.75-4.2s6,10.83,9.29,12.6,6.41,3.09,4.42,5.08S351.35,472.3,349.58,472.3Z" style="fill:#fff;stroke:#263238;stroke-miterlimit:10"></path><path d="M387.39,256.59s-15.08,22-15.08,26.71,2.59,21.11,2.59,21.11Z" style="fill:none;stroke:#263238;stroke-miterlimit:10"></path><path d="M426.29,292.2l.17,22.72,17.91,78.26s-20.34,8-53.94,4.2-38-8.4-38-8.4l10.83-37.58S368,314,373.4,302.1c1.91-4.2,6-15.43,6-15.43Z" style="fill:#263238;stroke:#263238;stroke-miterlimit:10"></path><path d="M426.63,232.42s11.49,30.87,11,33.27-7.37,14.06-8.23,14.41-.05,11.4-1.08,12.77-4.11,2.06-4.11,2.06-44.77-4.8-45.62-6a3.57,3.57,0,0,1-.69-3.95c.69-1.88,11.2-41.07,14.63-47.42s17.36-22.51,17.36-22.51Z" style="fill:#15566C;stroke:#263238;stroke-miterlimit:10"></path><path d="M434.88,171s10.73-4.57,11.44-3.71,4,12.72,2.58,14.3-6.87,4.86-6.87,4.86L435.74,174Z" style="fill:#263238;stroke:#263238;stroke-miterlimit:10"></path><path d="M439.6,175.87s6.15,11.15,6.15,12.72-.57,4-.14,4.44,5.72,6.58,5.57,7.29-3.14,2.29-3.43,2.72,0,13.15-2.43,13.15a71.06,71.06,0,0,1-8.44-1.14l-10.15,12.87s2.72,12.87,1.43,10.44-18.3-23.31-18.3-23.31l4.71-7.29s-12.72-12.87-13.15-20,11.15-19.17,14.58-20.31,24.17,3.57,23.89,6Z" style="fill:#fff;stroke:#263238;stroke-miterlimit:10"></path><polygon points="436.88 215.05 432.54 214.1 433.55 219.16 436.88 215.05" style="fill:#263238;stroke:#263238;stroke-miterlimit:10"></polygon><path d="M439.6,175.87s-3.15,12.3-5.72,14.15a45.25,45.25,0,0,1-6.29,3.58s-3.15-3.29-4.44-1.57-1.71,5-.57,6.43,1.86,2.29,1.86,2.29-.71,11.58-.57,12.44,1.72,4.72,1.72,4.72-13-.29-19.31-2.57S393.55,205,393.55,205s3.58-15.59,7.44-22.31,14.44-16.73,17-16.44,23.59,4.43,23.31,5.86A15.57,15.57,0,0,1,439.6,175.87Z" style="fill:#263238;stroke:#263238;stroke-miterlimit:10"></path><path d="M441,193.24c0,1.15.45,2.08,1,2.08s1-.93,1-2.08-.45-2.07-1-2.07S441,192.1,441,193.24Z" style="fill:#263238"></path><path d="M444.46,188.59s-3.14-1.57-4.14-.14" style="fill:none;stroke:#263238;stroke-miterlimit:10"></path><line x1="446.04" y1="205.33" x2="443.32" y2="205.33" style="fill:none;stroke:#263238;stroke-miterlimit:10"></line><path d="M423.37,244.25l17,37.22s32.58,14.75,35.67,15.78,11.15-1,12.52-1.38,11.15,3.78,11.15,3.78a32,32,0,0,1-1,3.08c-.34.69-1.71.86-1.71.86s-2.75,5.49-4.29,6.35a7.23,7.23,0,0,1-6,.68c-2-.85-8.06-3.26-8.06-3.26s-24-4.11-30.18-5.83-18.87-5.48-18.87-5.48L404.85,254.2Z" style="fill:#fff;stroke:#263238;stroke-miterlimit:10"></path><path d="M411.54,228.64s7.2,4.29,9.26,7.21,5.48,8.4,5.48,8.4l-22.81,13.21-5-14.75" style="fill:#15566C;stroke:#263238;stroke-miterlimit:10"></path><path d="M414.74,328.63s-14.37,37.58-25.2,53.06" style="fill:none;stroke:#8c8c8c;stroke-miterlimit:10"></path><path d="M401.92,366.87s-5.08,10.4-13.26,17.69" style="fill:none;stroke:#8c8c8c;stroke-miterlimit:10"></path></g><g id="freepik--character-1--inject-30"><path d="M636.79,181.63s-.41-15.7.23-16,8.65-5,9.12-4.88S654,178,652.64,179.5s-7.54,10.28-7.54,10.28L636,183.22Z" style="fill:#fff;stroke:#263238;stroke-miterlimit:10"></path><path d="M587.16,31.34s-8.95,18.13-61,6.55c-46.92-10.45-75.87-14.82-130.75-2.56S338.72,63,289.24,60.66,160.74,25.83,96.57,24.57c-35.09-.69-62.12,10.91-62.12,10.91L45.22,140.11s56.51-23.11,125.37-2.53c67.91,20.3,108.46,34.12,194.69,6.14,111.62-36.21,142.88-1.88,208.59-5.93,35.4-2.18,55-6.83,55-6.83Z" style="fill:#fff;stroke:#263238;stroke-miterlimit:10"></path><path d="M230.21,75.8c13.15,5,25.57,9.78,40.68,12.94,26.46,5.52,57.22-4.61,89.78-15.33C385.84,65.13,411.87,56.56,439,54c31.35-2.91,61.27.24,83.95,4.31l-8.07-15.75L596.43,80.4l-46.38,51.44-6-16.2c-9.22-2.84-54.75-15.8-102.48-11.36-21.31,2-43.48,9.29-66.95,17-27.3,9-55.28,18.2-83.75,19.38a131.28,131.28,0,0,1-32.22-2.51c-18.93-3.95-33.77-9.63-48.13-15.12-29.8-11.41-58-22.18-126.33-16.39L76.92,57C156.66,50.27,198.13,63.52,230.21,75.8Z" style="fill:#15566C"></path><line x1="585.06" y1="25.4" x2="687.17" y2="260.52" style="fill:none;stroke:#263238;stroke-linecap:round;stroke-miterlimit:10;stroke-width:5px"></line><path d="M636.69,172.48l.74-8.07a66.77,66.77,0,0,0,3.31-6.16c1.18-2.69,4.4-1.63,3.58.82s-1.71,6.34-1.71,6.34,3.26,7.68,2.45,9.57-2,4.57-2,4.57" style="fill:#fff;stroke:#263238;stroke-miterlimit:10"></path><path d="M643.17,161.33s5.52-3.45,6.18-3.05,1.57,3.57,1.13,4.1a40.47,40.47,0,0,1-4,2.81,2,2,0,0,1-2.69-.52A3.24,3.24,0,0,1,643.17,161.33Z" style="fill:#fff;stroke:#263238;stroke-miterlimit:10"></path><path d="M644.69,166.74s5.51-3.44,6.17-3,1.57,3.57,1.13,4.1a40.47,40.47,0,0,1-4,2.81,2,2,0,0,1-2.69-.52A3.28,3.28,0,0,1,644.69,166.74Z" style="fill:#fff;stroke:#263238;stroke-miterlimit:10"></path><path d="M647,171.24s4.93-3.09,5.52-2.72,1.4,3.19,1,3.66a37.2,37.2,0,0,1-3.61,2.51,1.76,1.76,0,0,1-2.41-.46A2.92,2.92,0,0,1,647,171.24Z" style="fill:#fff;stroke:#263238;stroke-miterlimit:10"></path><path d="M648.35,175.61s4.67-2.46,5.18-2.09,1.06,3,.67,3.39a36.07,36.07,0,0,1-3.44,2,1.6,1.6,0,0,1-2.15-.59A2.65,2.65,0,0,1,648.35,175.61Z" style="fill:#fff;stroke:#263238;stroke-miterlimit:10"></path><polygon points="635.69 181.95 646.24 189.84 641.32 196.6 632.45 186.59 635.69 181.95" style="fill:#fff;stroke:#263238;stroke-miterlimit:10"></polygon><path d="M631.63,185.66l11.6,11.71s-33.86,44.76-34.41,45S588,245.15,588,245.15l-2.47-22.9,17.28-1Z" style="fill:#15566C;stroke:#263238;stroke-miterlimit:10"></path><path d="M597.61,159.46s10.11,12.81,9,14.8a7.49,7.49,0,0,0-1.08,2.53s7.4,6,7,7.94-3.79,2.17-3.79,2.17.54,12.82-1.44,13.72-10.66-.54-10.66-.54l-6.13,9.38-21.49-17.69a14.84,14.84,0,0,0,.73-2.53c0-.54-9.39-14.62-9.39-18.05s5.23-12.64,11.91-15,18.24-4.88,20.76-3.07S597.61,155.67,597.61,159.46Z" style="fill:#fff;stroke:#263238;stroke-miterlimit:10"></path><path d="M572.33,156.21c6.68-2.35,18.24-4.88,20.76-3.07s4.52,2.53,4.52,6.32c0,0-12.46,1.26-11.38,2.52s10.11,4.88,8.13,7.05a22.5,22.5,0,0,1-3.61,3.24s2.52,8.67,2,9-1.08,1.45-2-.36-5.24-7.76-7-7.4-4.7,7.76-3.79,9.57a16.43,16.43,0,0,0,3.61,4s-7.23,3.25-7.95,3.43-5.77-1.27-5.77-1.27c0-.54-11.32-8.57-9.39-18.05C561.1,167.83,565.65,158.55,572.33,156.21Z" style="fill:#263238;stroke:#263238;stroke-miterlimit:10"></path><path d="M604.83,174.08s-3.07-2.53-4.33-.54" style="fill:none;stroke:#263238;stroke-miterlimit:10"></path><path d="M601.67,178.05c0,.9.44,1.63,1,1.63s1-.73,1-1.63-.45-1.62-1-1.62S601.67,177.15,601.67,178.05Z" style="fill:#263238"></path><path d="M607.54,189.24s-2.35-2.52-4.7-2" style="fill:none;stroke:#263238;stroke-miterlimit:10"></path><polygon points="596.71 200.08 593.46 198.81 590.57 196.29 593.46 204.77 596.71 200.08" style="fill:#263238;stroke:#263238;stroke-miterlimit:10"></polygon><path d="M583.53,187.08a5.21,5.21,0,0,0,2.88.9l1.27-.18.9,2.35" style="fill:none;stroke:#263238;stroke-miterlimit:10"></path><polygon points="568.16 190.44 592.51 211.28 593.29 215.18 564.65 193.56 568.16 190.44" style="fill:#fff;stroke:#263238;stroke-miterlimit:10"></polygon><polygon points="564.65 193.56 558.57 200 594.64 223.39 593.29 215.18 564.65 193.56" style="fill:#15566C;stroke:#263238;stroke-miterlimit:10"></polygon><path d="M585.24,299l-3.82,17.43s41.66,49.82,42.75,53.64,11.44,69.7,11.44,69.7l3.27.27,2.45,4.63-21,13.89-22.05-79.24-36.76-27.77s-12.8,38.12-13.62,40.3S509,442.5,509,442.5l.54,3a63.3,63.3,0,0,1-3.81,6.26c-.82.82-17.7-13.88-17.7-13.88l36.49-54.46,6.53-65.62,7.9-27.5Z" style="fill:#263238;stroke:#263238;stroke-miterlimit:10"></path><path d="M589.86,261.71l-2.45,29.4s1.64,3.82.82,4.9-1.09,2.73-3,3-15-2.72-15-2.72Z" style="fill:none;stroke:#263238;stroke-miterlimit:10"></path><polyline points="593.42 248.03 605.7 292.82 601.4 310.62 596.49 295.89 589.13 233.92" style="fill:#263238;stroke:#263238;stroke-miterlimit:10"></polyline><path d="M594.64,223.39s1.37,34.12-1.36,37.83-35.88,69-36.66,69.22-3.32.39-8.78,0S510.6,315,510.6,315s30.23-51.08,30.23-51.67,5-42,6.94-45.84S558.57,200,558.57,200Z" style="fill:#15566C;stroke:#263238;stroke-miterlimit:10"></path><line x1="579.63" y1="246.6" x2="560.71" y2="248.16" style="fill:none;stroke:#263238;stroke-miterlimit:10"></line><path d="M581.58,248.74S559.74,259.85,557,261.22" style="fill:none;stroke:#263238;stroke-miterlimit:10"></path><path d="M654.17,228.2,670,209.8c.2-.79,4.08.5,4.14,2.59,0,1.32-2.07,3.63-2.07,3.63s6.22,10.36,6,12.18-2.85,6.21-3.89,7.25-6,2.59-7,2.33-8,.78-8,.78L654.43,230Z" style="fill:#fff;stroke:#263238;stroke-miterlimit:10"></path><path d="M562.47,212.08s16.57-.78,19.11.2,39.6,35.27,39.6,35.27l35.79-24s7.08,7,7.27,10.14.28,6,.28,6-41.58,28.37-42,29-5.07,3.31-5.65,2.73-51.7-32.61-51.7-32.61" style="fill:#15566C;stroke:#263238;stroke-miterlimit:10"></path><path d="M585.24,276.14l-24.78,24.78-19.33,15.24s9.53,4.63,12,7.63a21.15,21.15,0,0,1,3.51,6.65Z" style="fill:#15566C;stroke:#263238;stroke-miterlimit:10"></path><path d="M641.33,444.68c1.36.28,14.43-2.45,16.88-3.26s6.53-1.09,6.53,1.63v2.72s-14.16,14.16-19.87,17.7-14.71,9.8-16.61,8.71-7.9-13.61-7.9-13.61Z" style="fill:#fff;stroke:#263238;stroke-miterlimit:10"></path><path d="M505.73,451.76l-1.09,3.54s7.35,9.53,9.53,11.17,5.44,3.81,3.81,4.62-16.34,1.37-18.51.55-9.81-12.25-13.35-15-6.8-8.71-4.35-12.25a35.23,35.23,0,0,1,6.26-6.53Z" style="fill:#fff;stroke:#263238;stroke-miterlimit:10"></path></g></svg>
