<svg width="392" height="469" viewBox="0 0 392 469" fill="none" xmlns="http://www.w3.org/2000/svg">
<g clip-path="url(#clip0_3759_1679)">
<path d="M77.5986 162.011H116.272V149.277C116.272 127.932 98.943 110.604 77.5987 110.604L77.5986 162.011Z" fill="#2F2E41"/>
<path d="M86.1712 138.239L79.5218 168.147L118.486 161.677L102.608 133.392L86.1712 138.239Z" fill="#A0616A"/>
<path opacity="0.1" d="M86.1712 138.239L79.5218 168.147L118.486 161.677L102.608 133.392L86.1712 138.239Z" fill="black"/>
<path d="M123.528 257.417H86.1709V202.129H123.528V257.417Z" fill="#A0616A"/>
<path d="M61.8896 302.619L70.1081 346.7C70.1081 346.7 64.8781 377.333 80.568 408.713L91.0279 440.839L106.718 438.598C106.718 438.598 97.005 414.69 97.005 404.23C97.005 393.77 94.7636 353.424 94.7636 353.424L95.8843 307.387L61.8896 302.619Z" fill="#2F2E41"/>
<path d="M108.959 437.851C108.959 437.851 91.028 431.127 89.5338 440.84L90.2809 445.322C90.2809 445.322 83.5567 465.495 93.2695 466.989C102.982 468.484 111.948 470.725 112.695 466.242C113.442 461.759 113.43 456.164 111.568 452.237C109.706 448.311 108.959 437.851 108.959 437.851Z" fill="#2F2E41"/>
<path d="M118.447 295.781L122.812 340.409C122.812 340.409 136.354 368.379 130.011 402.884L128.898 436.652L113.204 438.863C113.204 438.863 115.884 413.196 112.975 403.149C110.066 393.102 100.999 353.725 100.999 353.725L87.119 309.816L118.447 295.781Z" fill="#2F2E41"/>
<path d="M110.844 438.769C110.844 438.769 126.198 427.323 130.335 436.237L130.864 440.751C130.864 440.751 142.933 458.258 134.019 462.394C125.105 466.531 117.116 471.177 115.152 467.079C113.188 462.981 111.643 457.603 112.339 453.313C113.036 449.024 110.844 438.769 110.844 438.769Z" fill="#2F2E41"/>
<path d="M70.8545 232.014C53.2825 248.412 51.9788 274.356 62.2625 305.233C62.2625 305.233 95.1365 327.647 119.045 299.256L130.999 241.726L70.8545 232.014Z" fill="#2F2E41"/>
<path d="M100.366 152.07L81.6876 155.059L83.1819 202.129L62.262 243.968L89.1589 257.417C89.1589 257.417 110.079 217.818 113.814 193.163C117.55 168.507 115.309 150.576 115.309 150.576L100.366 152.07Z" fill="#15566C"/>
<path d="M114.563 153.565L133.241 156.553L131.747 203.623L136.229 246.957L125.77 258.911C125.77 258.911 104.85 219.313 101.114 194.657C97.3784 170.002 99.6198 152.07 99.6198 152.07L114.563 153.565Z" fill="#15566C"/>
<path d="M92.147 154.686L88.0378 153.565C88.0378 153.565 73.4686 151.698 71.2272 157.675C68.9858 163.652 69.7329 198.767 69.7329 198.767C69.7329 198.767 65.8777 241.866 80.8802 242.357C95.8827 242.848 92.8941 206.986 92.8941 206.986L92.147 154.686Z" fill="#15566C"/>
<path d="M92.6917 146.448C82.0124 146.448 73.355 137.79 73.355 127.111C73.355 116.432 82.0124 107.774 92.6917 107.774C103.371 107.774 112.028 116.432 112.028 127.111C112.028 137.79 103.371 146.448 92.6917 146.448Z" fill="#A0616A"/>
<path d="M116.804 156.18L120.913 155.06C120.913 155.06 135.482 153.192 137.724 159.169C139.965 165.146 139.218 200.261 139.218 200.261C139.218 200.261 143.073 243.36 128.071 243.851C113.068 244.342 116.057 208.48 116.057 208.48L116.804 156.18Z" fill="#15566C"/>
<path d="M103.861 153.724C108.009 152.672 112.712 157.102 114.366 163.622C115.063 166.218 115.128 168.943 114.556 171.569L116.338 178.98L116.469 178.974L130.529 212.108C133.798 219.812 133.453 228.657 129.283 235.913C126.803 240.23 123.547 243.132 119.723 240.17C113.38 235.254 109.236 207.11 107.344 190.942L102.97 174.508C101.214 172.473 99.9711 170.046 99.3456 167.431C97.6907 160.914 99.7125 154.776 103.861 153.724Z" fill="#A0616A"/>
<path d="M129.711 142.756C128.728 139.765 126.786 137.147 125.917 134.121C124.764 130.103 122.308 139.016 122.069 134.843C121.613 126.911 109.507 106.507 102.596 102.588C95.6847 98.6683 91.7153 99.85 84.6742 103.531C84.6742 103.531 81.2563 103.748 77.0012 105.849C72.7461 107.95 68.916 111.314 67.261 115.762C65.9492 119.287 66.0944 123.158 65.6561 126.894C64.435 137.301 58.6009 147.2 59.8531 157.603C60.2438 160.849 61.4775 164.206 64.1315 166.115C66.7855 168.024 71.0732 167.817 72.8201 165.053C73.4163 164.11 73.6684 162.991 74.1792 161.999C74.6901 161.008 75.6132 160.083 76.7285 160.114C78.4047 160.16 79.258 162.41 78.597 163.951C77.936 165.492 76.3826 166.422 74.9242 167.25C78.3977 168.813 82.7066 168.326 85.7441 166.028C88.7816 163.73 90.4219 159.716 89.8629 155.949C89.0753 150.639 81.3407 151.738 80.4296 146.449C79.7663 142.598 77.437 136.155 78.0714 132.3C78.7059 128.445 81.753 133.113 78.5431 130.885C82.0746 132.588 89.6286 120.941 93.3257 119.636C97.0227 118.332 100.157 115.507 101.839 111.965C105.76 117.65 109.209 116.106 110.614 122.867C112.018 129.629 110.719 144.99 104.937 148.765C107.251 150.344 109.096 152.602 110.182 155.184C110.797 156.647 111.196 158.248 112.217 159.463C114.167 161.784 117.767 161.925 120.637 160.95C124.196 159.74 127.238 157.082 128.916 153.719C130.593 150.355 130.886 146.326 129.711 142.756Z" fill="#2F2E41"/>
<path d="M392 467.809C392 468.302 391.604 468.698 391.111 468.698H0.888968C0.39588 468.698 -0.000126466 468.302 -0.000126466 467.809C-0.000126466 467.316 0.39588 466.92 0.888968 466.92H391.111C391.604 466.92 392 467.316 392 467.809Z" fill="#3F3D56"/>
<path d="M137.945 0.74707H291.608C309.033 0.74707 323.159 14.8732 323.159 32.2986V436.076C323.159 453.501 309.033 467.627 291.608 467.627H137.945C120.52 467.627 106.393 453.501 106.393 436.076V32.2986C106.393 14.8732 120.519 0.74707 137.945 0.74707Z" fill="white"/>
<path d="M137.946 468.374H291.609C309.418 468.374 323.907 453.885 323.907 436.076V32.2987C323.907 14.4893 309.418 0 291.609 0H137.946C120.136 0 105.647 14.4893 105.647 32.2987V436.076C105.647 453.885 120.136 468.374 137.946 468.374ZM291.609 1.49427C308.594 1.49427 322.413 15.313 322.413 32.2987V436.076C322.413 453.061 308.594 466.88 291.609 466.88H137.946C120.96 466.88 107.141 453.061 107.141 436.076V32.2987C107.141 15.313 120.96 1.49427 137.946 1.49427H291.609Z" fill="#3F3D56"/>
<path d="M335.858 70.6543C337.207 70.6543 338.304 71.7513 338.304 73.1004V92.6689C338.304 94.018 337.207 95.115 335.858 95.115C334.509 95.115 333.412 94.018 333.412 92.6689V73.1004C333.412 71.7513 334.509 70.6543 335.858 70.6543Z" fill="#3F3D56"/>
<path d="M126.815 65.3459H188.579C191.199 65.3459 193.33 63.2146 193.33 60.5948C193.33 57.9751 191.199 55.8438 188.579 55.8438H126.815C124.195 55.8438 122.064 57.9751 122.064 60.5948C122.064 63.2146 124.195 65.3459 126.815 65.3459Z" fill="#E6E6E6"/>
<path d="M184.758 102.708H244.796C246.309 102.708 247.541 101.476 247.541 99.9624C247.541 98.4488 246.309 97.2178 244.796 97.2178H184.758C183.245 97.2178 182.014 98.4488 182.014 99.9624C182.014 101.476 183.245 102.708 184.758 102.708Z" fill="#15566C"/>
<path d="M333.484 116.256C360.263 116.256 381.972 95.0042 381.972 68.789C381.972 42.5739 360.263 21.3223 333.484 21.3223C306.704 21.3223 284.995 42.5739 284.995 68.789C284.995 95.0042 306.704 116.256 333.484 116.256Z" fill="#15566C"/>
<path d="M348.737 44.8462C342.282 56.6007 335.827 68.3552 329.371 80.1097C325.257 72.8404 321.165 65.5583 317.041 58.2947C315.617 55.7861 311.742 58.0424 313.17 60.5573C317.951 68.9774 322.683 77.4256 327.464 85.8457C328.281 87.2854 330.525 87.3188 331.335 85.8457C338.426 72.9334 345.517 60.0211 352.608 47.1088C353.998 44.5787 350.128 42.3141 348.737 44.8462Z" fill="white"/>
<path d="M269.615 10.9521H303.892C304.02 10.9521 304.124 11.0559 304.124 11.1839V15.1743C304.124 15.3023 304.02 15.406 303.892 15.406H269.615C269.487 15.406 269.384 15.3023 269.384 15.1743V11.1839C269.384 11.0559 269.487 10.9521 269.615 10.9521Z" fill="#E6E6E6"/>
<path d="M154.16 15.4065C152.192 15.4065 150.596 13.8112 150.596 11.8434C150.596 9.87553 152.192 8.28027 154.16 8.28027C156.127 8.28027 157.723 9.87553 157.723 11.8434C157.723 13.8112 156.127 15.4065 154.16 15.4065Z" fill="#E6E6E6"/>
<path d="M144.362 15.4065C142.394 15.4065 140.799 13.8112 140.799 11.8434C140.799 9.87553 142.394 8.28027 144.362 8.28027C146.33 8.28027 147.925 9.87553 147.925 11.8434C147.925 13.8112 146.33 15.4065 144.362 15.4065Z" fill="#E6E6E6"/>
<path d="M134.563 15.4065C132.595 15.4065 131 13.8112 131 11.8434C131 9.87553 132.595 8.28027 134.563 8.28027C136.531 8.28027 138.126 9.87553 138.126 11.8434C138.126 13.8112 136.531 15.4065 134.563 15.4065Z" fill="#E6E6E6"/>
<path d="M291.981 117.401C291.981 117.894 291.585 118.29 291.092 118.29H138.46C137.967 118.29 137.571 117.894 137.571 117.401C137.571 116.908 137.967 116.512 138.46 116.512H291.092C291.585 116.512 291.981 116.908 291.981 117.401Z" fill="#3F3D56"/>
<path d="M276.456 187.282H184.858C183.345 187.282 182.113 186.05 182.113 184.537C182.113 183.023 183.345 181.792 184.858 181.792H276.456C277.97 181.792 279.201 183.023 279.201 184.537C279.201 186.05 277.97 187.282 276.456 187.282Z" fill="#15566C"/>
<path d="M276.456 226.88H184.858C183.345 226.88 182.113 225.649 182.113 224.135C182.113 222.622 183.345 221.391 184.858 221.391H276.456C277.97 221.391 279.201 222.622 279.201 224.135C279.201 225.649 277.97 226.88 276.456 226.88Z" fill="#15566C"/>
<path d="M276.456 266.479H184.858C183.345 266.479 182.113 265.247 182.113 263.734C182.113 262.22 183.345 260.989 184.858 260.989H276.456C277.97 260.989 279.201 262.22 279.201 263.734C279.201 265.247 277.97 266.479 276.456 266.479Z" fill="#15566C"/>
<path d="M161.186 190.922C157.472 190.922 154.462 187.912 154.462 184.198C154.462 180.484 157.472 177.474 161.186 177.474C164.9 177.474 167.91 180.484 167.91 184.198C167.91 187.912 164.9 190.922 161.186 190.922Z" fill="#15566C"/>
<path d="M161.935 195.405V193.911C156.373 193.911 151.848 189.386 151.848 183.825C151.848 178.263 156.373 173.738 161.935 173.738V172.244C155.549 172.244 150.354 177.439 150.354 183.825C150.354 190.21 155.549 195.405 161.935 195.405Z" fill="#3F3D56"/>
<path d="M161.186 230.521C157.472 230.521 154.462 227.51 154.462 223.796C154.462 220.083 157.472 217.072 161.186 217.072C164.9 217.072 167.91 220.083 167.91 223.796C167.91 227.51 164.9 230.521 161.186 230.521Z" fill="#15566C"/>
<path d="M161.935 235.003V233.509C156.373 233.509 151.848 228.984 151.848 223.422C151.848 217.861 156.373 213.336 161.935 213.336V211.842C155.549 211.842 150.354 217.037 150.354 223.422C150.354 229.808 155.549 235.003 161.935 235.003Z" fill="#3F3D56"/>
<path d="M161.186 270.119C157.472 270.119 154.462 267.109 154.462 263.395C154.462 259.681 157.472 256.671 161.186 256.671C164.9 256.671 167.91 259.681 167.91 263.395C167.91 267.109 164.9 270.119 161.186 270.119Z" fill="#15566C"/>
<path d="M161.935 274.602V273.107C156.373 273.107 151.848 268.583 151.848 263.021C151.848 257.459 156.373 252.935 161.935 252.935V251.44C155.549 251.44 150.354 256.635 150.354 263.021C150.354 269.407 155.549 274.602 161.935 274.602Z" fill="#3F3D56"/>
<path d="M105.091 152.229C100.943 151.176 96.2397 155.607 94.5851 162.127C93.8885 164.723 93.8236 167.448 94.3958 170.073L92.6134 177.485L92.4822 177.478L78.4224 210.613C75.1534 218.317 75.4988 227.162 79.6684 234.418C82.1488 238.735 85.4049 241.637 89.228 238.675C95.5718 233.759 99.7154 205.614 101.607 189.447L105.982 173.013C107.738 170.977 108.98 168.551 109.606 165.936C111.261 159.418 109.239 153.281 105.091 152.229Z" fill="#A0616A"/>
<path d="M89.1196 170.386L104.85 181.567L96.9846 231.098L87.1204 243.855L75.6299 239.881L72.2702 216.467L76.2239 193.823L89.1196 170.386Z" fill="#15566C"/>
</g>
<defs>
<clipPath id="clip0_3759_1679">
<rect width="392" height="468.89" fill="white" transform="matrix(-1 0 0 1 392 0)"/>
</clipPath>
</defs>
</svg>
