<svg width="741" height="598" viewBox="0 0 741 598" fill="none" xmlns="http://www.w3.org/2000/svg">
<path d="M421.949 446.307C416.828 439.135 409.894 433.888 401.178 431.924C393.578 430.211 385.762 430.503 378.036 430.563L280.344 431.316C271.977 431.381 263.955 438.629 264.344 447.316C264.729 455.93 271.375 463.385 280.344 463.316C308.961 463.095 337.578 462.875 366.195 462.654C372.941 462.602 379.692 462.48 386.439 462.503C387.954 462.507 389.463 462.587 390.976 462.605C391.343 462.609 391.608 462.605 391.795 462.598C391.842 462.612 391.881 462.625 391.942 462.642C392.732 462.858 393.542 463.008 394.336 463.214C394.058 463.222 394.851 463.717 395.25 463.885C395.305 463.993 395.421 464.184 395.616 464.48C395.888 464.99 396.693 466.539 396.726 466.49C397.936 469.549 398.934 472.687 399.713 475.883C401.573 482.93 401.981 484.403 402.249 491.015C402.587 499.367 409.366 507.412 418.249 507.015C426.628 506.639 434.612 499.972 434.249 491.015C433.638 475.92 430.988 458.965 421.949 446.307Z" fill="#E6E6E6"/>
<path d="M286.087 482.412C284.252 471.293 282.452 460.166 280.582 449.053C278.684 437.778 274.807 427.454 266.034 420.055C263.689 418.078 261.259 416.232 258.818 414.392C257.959 413.746 257.103 413.098 256.254 412.437C256.204 412.397 256.171 412.372 256.127 412.338C256.034 412.258 255.922 412.163 255.772 412.035C252.115 408.941 248.582 405.708 245.216 402.272C242.228 399.221 239.369 396.039 236.642 392.727C235.96 391.9 235.287 391.066 234.623 390.224C234.509 390.079 233.894 389.284 233.488 388.765C233.111 388.246 232.422 387.308 232.307 387.144C231.531 386.047 230.769 384.94 230.02 383.822C224.924 376.187 220.512 368.117 216.834 359.707C216.469 358.872 216.113 358.033 215.765 357.19C215.672 356.932 215.551 356.601 215.391 356.161C214.65 354.122 213.91 352.087 213.232 350.024C211.792 345.643 210.555 341.198 209.519 336.688C209.006 334.461 208.545 332.223 208.135 329.973C207.924 328.816 207.726 327.657 207.542 326.495C207.512 326.302 207.332 325.049 207.226 324.341C207.148 323.629 207.002 322.369 206.983 322.175C206.866 321.004 206.762 319.832 206.671 318.658C206.466 316.018 206.328 313.374 206.256 310.725C206.133 306.017 206.217 301.31 206.509 296.603C206.675 293.958 206.911 291.321 207.202 288.688C207.22 288.526 207.233 288.397 207.246 288.281C207.264 288.164 207.284 288.03 207.309 287.864C207.524 286.409 207.751 284.956 208.004 283.508C208.964 278.008 210.212 272.563 211.743 267.194C212.468 264.655 213.256 262.137 214.106 259.639C214.485 258.53 214.876 257.425 215.279 256.325C215.253 256.396 216.461 253.309 216.477 253.206C221.272 241.877 229.115 231.549 229.126 218.679C229.133 209.966 221.761 201.619 213.126 202.022C208.82 202.184 204.745 204.011 201.761 207.118C198.776 210.226 197.114 214.371 197.126 218.679C197.126 218.875 197.125 219.042 197.124 219.204C197.044 219.475 196.976 219.701 196.916 219.902C195.981 221.934 194.835 223.864 193.809 225.846C190.998 231.269 188.599 236.871 186.32 242.554C182.59 251.81 179.734 261.395 177.791 271.183C173.568 292.629 173.24 314.66 176.823 336.223C183.027 374.036 203.485 410.232 231.926 434.562C234.395 436.673 236.923 438.714 239.475 440.713C240.531 441.54 241.596 442.352 242.667 443.159C243.172 443.54 245.268 445.193 244.346 444.392C246.329 446.084 247.163 446.935 247.672 448.182C247.746 448.469 247.847 448.859 247.983 449.392C248.342 450.798 248.683 452.2 248.966 453.625C251.441 466.076 253.162 478.737 255.23 491.269C256.651 499.879 267.252 505.483 274.912 502.903C283.828 499.899 287.61 491.638 286.087 482.412Z" fill="#E6E6E6"/>
<path d="M423.567 514.708C416.848 514.725 410.396 512.077 405.626 507.343C400.857 502.609 398.16 496.177 398.127 489.458V471.206C379.019 473.345 313.584 472.85 294.828 469.836V488.728C294.777 495.442 292.075 501.864 287.309 506.594C282.544 511.324 276.102 513.978 269.387 513.978C262.673 513.978 256.231 511.324 251.466 506.594C246.7 501.864 243.998 495.442 243.947 488.728V451.636C218.543 437.523 197.365 416.887 182.599 391.856C167.832 366.826 160.013 338.309 159.947 309.248C159.947 259.418 182.53 212.933 221.906 181.714C247.508 161.347 278.614 149.098 311.228 146.541C315.655 146.194 320.109 146.018 324.467 146.018C339.82 146.018 409.086 148.389 426.465 153.389L466.093 114.068C466.676 113.482 467.419 113.083 468.23 112.921C469.04 112.76 469.88 112.843 470.643 113.161C471.411 113.467 472.07 113.998 472.531 114.684C472.992 115.371 473.235 116.181 473.227 117.008V123.26L480.944 115.617C481.525 115.031 482.268 114.631 483.078 114.469C483.888 114.308 484.728 114.391 485.49 114.709C486.259 115.015 486.918 115.546 487.38 116.233C487.842 116.919 488.085 117.73 488.078 118.557V188.422C507.962 206.349 523.118 228.903 532.201 254.088C541.285 279.272 544.015 306.308 540.151 332.8C536.287 359.292 525.948 384.422 510.049 405.962C494.151 427.503 473.184 444.789 449.007 456.288V489.458C448.974 496.177 446.277 502.609 441.508 507.343C436.739 512.077 430.287 514.725 423.567 514.708ZM400.127 468.938V489.458C400.178 495.641 402.67 501.554 407.06 505.909C411.45 510.264 417.384 512.707 423.567 512.707C429.751 512.707 435.684 510.264 440.075 505.909C444.465 501.554 446.957 495.641 447.007 489.458V455.025L447.578 454.754C474.706 441.881 497.735 421.742 514.109 396.572C534.974 364.454 543.651 325.927 538.57 287.965C533.489 250.003 514.986 215.114 486.41 189.612L486.077 189.314V118.557C486.085 118.127 485.96 117.706 485.72 117.349C485.48 116.992 485.137 116.717 484.736 116.562C484.337 116.391 483.897 116.345 483.472 116.43C483.047 116.514 482.657 116.725 482.354 117.035L471.227 128.055V117.008C471.235 116.578 471.11 116.156 470.87 115.799C470.63 115.442 470.286 115.168 469.886 115.012C469.486 114.842 469.045 114.796 468.619 114.881C468.194 114.966 467.804 115.178 467.5 115.488L427.024 155.652L426.449 155.472C410.293 150.415 339.936 148.018 324.467 148.018C320.161 148.018 315.76 148.192 311.386 148.535C279.167 151.061 248.439 163.161 223.149 183.281C184.254 214.119 161.947 260.032 161.947 309.248C162.014 338.052 169.791 366.313 184.472 391.094C199.153 415.876 220.202 436.275 245.431 450.173L245.947 450.458V488.728C245.999 494.911 248.491 500.823 252.881 505.177C257.272 509.53 263.204 511.973 269.387 511.973C275.57 511.973 281.503 509.53 285.893 505.177C290.284 500.823 292.776 494.911 292.828 488.728V467.442L294.012 467.665C310.868 470.836 381.844 471.336 398.997 469.086L400.127 468.938Z" fill="#3F3D56"/>
<path d="M352.128 0.0078125C333.937 0.0148471 316.462 7.1 303.403 19.7636C290.344 32.4273 282.724 49.6756 282.158 67.8578C282.138 68.5678 282.128 69.2878 282.128 70.0078C282.128 83.8525 286.233 97.3863 293.925 108.898C301.617 120.409 312.549 129.381 325.34 134.679C338.131 139.978 352.206 141.364 365.784 138.663C379.363 135.962 391.836 129.295 401.625 119.505C411.415 109.716 418.082 97.2428 420.783 83.6641C423.484 70.0855 422.098 56.0108 416.799 43.22C411.501 30.4292 402.529 19.4966 391.018 11.8049C379.506 4.11325 365.973 0.0078125 352.128 0.0078125ZM352.128 138.008C334.099 137.989 316.814 130.819 304.065 118.07C291.317 105.322 284.147 88.0368 284.128 70.0078C284.128 69.0778 284.148 68.1578 284.188 67.2478C284.729 53.9276 289.174 41.0604 296.97 30.2462C304.766 19.432 315.569 11.1479 328.035 6.42403C340.501 1.70011 354.081 0.744789 367.085 3.67686C380.09 6.60894 391.946 13.299 401.179 22.9153C410.412 32.5315 416.615 44.6497 419.016 57.7629C421.417 70.8761 419.91 84.4058 414.684 96.6696C409.457 108.933 400.741 119.39 389.618 126.74C378.496 134.09 365.459 138.008 352.128 138.008Z" fill="#3F3D56"/>
<path d="M411.128 70.0076C411.128 85.6554 404.912 100.662 393.847 111.727C382.783 122.792 367.776 129.008 352.128 129.008C336.48 129.008 321.473 122.792 310.409 111.727C299.344 100.662 293.128 85.6554 293.128 70.0076C293.128 68.1376 293.218 66.2976 293.388 64.4776C294.809 49.3759 301.993 35.4019 313.447 25.4572C324.9 15.5125 339.744 10.3612 354.896 11.0728C370.048 11.7845 384.343 18.3044 394.815 29.2789C405.286 40.2533 411.128 54.8391 411.128 70.0076Z" fill="#E6E6E6"/>
<path d="M369.698 73.9272C368.268 72.0469 366.386 70.5576 364.228 69.5972C361.566 68.4752 358.817 67.5722 356.008 66.8972V50.8372C360.325 51.4881 364.375 53.3344 367.698 56.1671L370.958 49.2172C369.083 47.5468 366.93 46.2168 364.598 45.2872C362.012 44.2402 359.298 43.544 356.528 43.2172V35.0771H348.978V43.2971C346.063 43.6246 343.25 44.5689 340.728 46.0672C338.45 47.4158 336.531 49.296 335.138 51.5471C333.808 53.7441 333.118 56.2692 333.148 58.8372C333.018 61.62 333.824 64.3662 335.438 66.6371C336.923 68.6033 338.885 70.1589 341.138 71.1572C343.842 72.3122 346.639 73.2387 349.498 73.9272V89.3172C344.403 88.9328 339.548 86.9958 335.588 83.7672L332.328 90.7272C334.542 92.5578 337.061 93.9861 339.768 94.9471C342.735 96.0088 345.834 96.655 348.978 96.8672V104.937H356.528V96.7172C360.721 96.2589 364.654 94.4557 367.738 91.5771C369.096 90.2748 370.169 88.7046 370.888 86.966C371.608 85.2274 371.958 83.3583 371.918 81.4772C372.043 78.783 371.262 76.1246 369.698 73.9272ZM349.498 65.1971C347.659 64.6394 345.949 63.7217 344.468 62.4972C343.881 61.975 343.417 61.3294 343.109 60.6067C342.802 59.884 342.658 59.1021 342.688 58.3172C342.633 56.5361 343.288 54.8061 344.508 53.5072C345.86 52.1444 347.605 51.2387 349.498 50.9171V65.1971ZM360.748 86.4772C359.472 87.7855 357.811 88.6511 356.008 88.9471V75.7072C357.731 76.1696 359.344 76.9757 360.748 78.0771C361.28 78.5318 361.703 79.1005 361.985 79.7411C362.268 80.3817 362.402 81.0776 362.378 81.7772C362.447 83.4934 361.865 85.1724 360.748 86.4772Z" fill="#15566C"/>
<path d="M166.847 259.258C152.895 257.197 139.551 252.152 127.725 244.466C121.866 240.661 116.443 236.225 111.551 231.238C106.723 226.313 102.105 220.717 99.7135 214.159C97.4127 208.091 97.5313 201.372 100.045 195.389C102.524 189.443 107.26 184.723 113.213 182.264C119.203 179.875 126.44 179.62 132.269 182.236C135.047 183.453 137.45 185.388 139.233 187.841C140.062 188.973 140.676 190.246 141.044 191.6C141.385 192.826 141.416 194.118 141.134 195.359C140.792 196.598 140.189 197.749 139.366 198.736C138.543 199.724 137.518 200.523 136.36 201.082C133.812 202.389 131.052 203.231 128.208 203.568C125.348 203.958 121.239 204.313 118.94 202.017C118.467 201.563 118.094 201.014 117.847 200.406C117.674 199.941 117.615 199.441 117.675 198.948C117.641 199.165 117.814 198.476 117.804 198.503C117.767 198.605 117.61 198.854 117.834 198.472C117.904 198.346 117.982 198.225 118.067 198.109C117.991 198.207 117.824 198.371 118.122 198.09C118.368 197.82 118.685 197.625 119.036 197.525C119.175 197.485 119.315 197.453 119.454 197.415C119.807 197.319 119.102 197.42 119.463 197.409C119.603 197.404 119.743 197.408 119.882 197.401C120.236 197.385 119.533 197.305 119.872 197.39C120.004 197.423 120.135 197.456 120.264 197.497C120.546 197.585 120.065 197.29 120.256 197.511C120.48 197.77 120.02 197.259 120.275 197.51C120.402 197.634 120.521 197.766 120.633 197.904C121.074 198.34 121.67 198.584 122.29 198.584C122.911 198.584 123.506 198.34 123.948 197.904C124.374 197.458 124.612 196.864 124.612 196.247C124.612 195.629 124.374 195.036 123.948 194.589C121.636 191.724 117.071 192.432 114.732 194.853C111.75 197.942 112.931 202.837 115.832 205.531C119.116 208.582 123.766 208.794 127.99 208.283C131.56 207.941 135.039 206.958 138.26 205.381C141.46 203.808 143.963 201.104 145.284 197.792C145.88 196.025 146.094 194.151 145.912 192.295C145.73 190.438 145.156 188.641 144.227 187.024C140.498 180.012 132.776 176.418 125.143 175.795C121.213 175.487 117.261 175.962 113.516 177.191C109.771 178.421 106.307 180.381 103.324 182.958C97.575 188.134 94.0349 195.321 93.4357 203.033C92.7695 211.029 95.8718 218.794 100.395 225.247C105.13 231.804 110.781 237.648 117.174 242.601C129.674 252.58 144.336 259.494 159.986 262.791C161.848 263.176 163.72 263.505 165.601 263.779C166.2 263.924 166.831 263.835 167.367 263.531C167.903 263.227 168.302 262.73 168.485 262.142C168.645 261.542 168.564 260.904 168.257 260.364C167.951 259.825 167.444 259.427 166.847 259.258Z" fill="#3F3D56"/>
<path d="M390.233 157.382C369.791 157.094 349.413 157.612 329.1 158.938C322.157 159.392 316.149 161.846 316.149 165.97C316.149 169.419 322.109 173.459 329.1 173.002C349.403 171.677 369.781 171.158 390.233 171.446C406.907 171.681 406.897 157.617 390.233 157.382Z" fill="#CCCCCC"/>
<path d="M360.02 170.75C357.811 170.75 305.914 170.667 305.914 163.499C305.914 156.331 357.811 156.248 360.02 156.248C362.229 156.248 414.125 156.331 414.125 163.499C414.125 170.667 362.229 170.75 360.02 170.75ZM307.943 163.499C309.364 165.672 328.44 168.75 360.02 168.75C391.6 168.75 410.676 165.672 412.096 163.499C410.676 161.326 391.6 158.248 360.02 158.248C328.44 158.248 309.364 161.326 307.943 163.499Z" fill="#3F3D56"/>
<path d="M524.673 359.2C536.161 358.881 550.459 358.482 561.474 350.436C564.754 347.941 567.449 344.76 569.37 341.115C571.291 337.469 572.391 333.448 572.594 329.332C572.819 322.978 570.523 317.431 566.13 313.718C560.377 308.857 551.976 307.717 542.922 310.377L552.302 241.829L545.417 240.886L534.389 321.473L540.139 318.834C546.806 315.776 555.957 314.22 561.643 319.026C563.04 320.282 564.127 321.844 564.822 323.589C565.517 325.334 565.8 327.216 565.649 329.088C565.48 332.151 564.654 335.142 563.226 337.857C561.798 340.572 559.802 342.948 557.374 344.823C548.802 351.084 537.405 351.892 524.479 352.253L524.673 359.2Z" fill="#3F3D56"/>
<path d="M505.635 247.741H468.203V254.691H505.635V247.741Z" fill="#3F3D56"/>
</svg>
